<?xml version="1.0" encoding="UTF-8"?>
<svg xmlns="http://www.w3.org/2000/svg" id="Capa_2" data-name="Capa 2" viewBox="0 0 1621.5 329.38"><defs><style> .cls-1 { fill: #898989; } .cls-2 { fill: #a4a4a4; } .cls-3 { fill: #c9c9c9; } .cls-4 { fill: #fff; } .cls-5 { fill: #cdcdcd; } .cls-6 { fill: #6e6e6e; } .cls-7 { fill: #a0a0a0; } .cls-8 { fill: #dbdbdb; } .cls-9 { fill: #c5c5c5; } .cls-10 { fill: #ccc; } .cls-11 { fill: #a5a5a5; } .cls-12 { fill: #ababab; } .cls-13 { fill: gray; } .cls-14 { fill: #b7b7b7; } .cls-15 { fill: #5c595a; } </style></defs><g id="Capa_2-2" data-name="Capa 2"><g><g><path class="cls-10" d="M1390.54,213.61c-.26-.26-.39-.78-.39-1.56,0-1.11.13-1.66.39-1.66.72,0,1.71-.15,2.98-.44,1.27-.29,2.49-.72,3.66-1.27s1.86-1.16,2.05-1.81c.65-1.24,1.01-3.42,1.07-6.55.2-7.36.39-14.1.59-20.23.2-6.12.37-11.25.54-15.39.16-4.14.24-6.82.24-8.06s-.1-2.15-.29-2.74c-.13-.39-.7-.75-1.71-1.07-1.01-.33-2.09-.59-3.22-.78-1.14-.2-2-.29-2.59-.29-.26,0-.39-.55-.39-1.66,0-.72.13-1.2.39-1.47l5.08.29c2.34.2,4.36.29,6.06.29l9.58-.59c.91,2.74,2.31,6.32,4.2,10.75,1.89,4.43,4.12,9.58,6.69,15.44s5.26,12.31,8.06,19.35c0,.13.1.2.29.2s.29-.1.29-.29c2.87-6.9,5.44-13.17,7.72-18.81,2.28-5.63,4.27-10.67,5.96-15.1l3.52-11.33c1.95.2,4.62.29,8.01.29,1.3,0,2.91-.05,4.84-.15,1.92-.1,4.18-.21,6.79-.34.2.26.29.78.29,1.56,0,1.11-.13,1.66-.39,1.66h-.2c-1.76,0-3.36.52-4.79,1.56-.98.65-1.4,2.41-1.27,5.28s.31,7.67.54,14.41.5,15.39.83,25.94c.13,3.65.65,6.64,1.56,8.99.2.39.7.77,1.51,1.12.81.36,1.68.65,2.59.88.91.23,1.56.34,1.95.34.26,0,.39.59.39,1.76,0,.46-.07.94-.2,1.47l-12.02-.59c-2.28,0-4.63.07-7.03.2-2.41.13-4.4.26-5.96.39-.26-.26-.39-.75-.39-1.47,0-1.17.13-1.76.39-1.76.72,0,1.76-.21,3.13-.64,1.37-.42,2.28-.89,2.74-1.42.65-.85.98-1.99.98-3.42v-5.47l-.98-29.7c-.33-4.04-.72-6.06-1.17-6.06-.2,0-.36.2-.49.59l-18.66,45.53c-1.11,2.48-2.35,3.71-3.71,3.71-.13,0-.28-.02-.44-.05-.16-.03-.34-.08-.54-.15l-21.89-52.57c-.26,8.08-.51,15.76-.73,23.06-.23,7.3-.51,14.14-.83,20.52,0,1.43.1,2.44.29,3.03.26.46.98.93,2.15,1.42s2.39.88,3.66,1.17,2.17.44,2.69.44c.26,0,.39.59.39,1.76,0,.46-.07.94-.2,1.47l-12.31-.59c-1.76,0-4.07.1-6.94.29-2.93.2-4.72.29-5.37.29l.02.03Z"/><path class="cls-10" d="M604.82,213.86c-.36-.6-.54-1.66-.54-3.21,0-1.9.18-2.85.54-2.85,1.07,0,2.5-.18,4.28-.54s3.48-.83,5.09-1.43c1.61-.59,2.53-1.25,2.77-1.96.71-2.14,1.07-7.55,1.07-16.24v-67.45c0-6.78-.36-11.66-1.07-14.63-.24-.71-1.16-1.4-2.77-2.05-1.61-.65-3.33-1.22-5.17-1.7-1.85-.47-3.24-.71-4.19-.71-.48,0-.71-.89-.71-2.68s.24-2.85.71-3.21c12.49.36,20.4.54,23.73.54,1.66,0,3.51-.03,5.53-.09s4.16-.15,6.42-.27l12.13-.18c3.57,0,7.11.33,10.62.98,3.51.66,7.05,1.81,10.62,3.48,5.71,2.62,10.2,6.33,13.47,11.15,3.27,4.82,4.91,10.5,4.91,17.04,0,5.59-1.43,11.06-4.28,16.42-2.98,5.35-7.41,9.9-13.29,13.65-5.89,3.75-12.52,5.62-19.9,5.62-2.5,0-5-.45-7.49-1.34-2.5-.89-4.22-1.99-5.17-3.3-.83-.83-1.16-1.99-.98-3.48.18-1.49.45-2.23.8-2.23,2.5,1.19,5.83,1.78,9.99,1.78,5.71,0,10.23-2.35,13.56-7.05s5-10.62,5-17.75c0-7.97-1.61-14.28-4.82-18.91-3.21-4.64-8.15-6.96-14.81-6.96-5.12,0-8.56.42-10.35,1.25-1.43.71-2.14,6.9-2.14,18.56v63.7c0,6.9.47,11.96,1.43,15.17.24.95,1.28,1.78,3.12,2.5,1.84.71,3.84,1.28,5.98,1.7,2.14.42,3.75.62,4.82.62.47,0,.71,1.01.71,3.03,0,1.07-.12,2.08-.36,3.03-12.97-.71-21.41-1.07-25.34-1.07-3.21,0-6.81.09-10.8.27-3.99.18-7.17.33-9.55.45l-3.57.36h0Z"/><path class="cls-10" d="M702.43,213.86c-.48-.48-.71-1.61-.71-3.39s.24-2.68.71-2.68c.95,0,2.29-.21,4.01-.62,1.72-.42,3.33-.95,4.82-1.61,1.49-.65,2.29-1.22,2.41-1.7.83-3.33,1.25-7.61,1.25-12.85v-74.23c0-2.38-.09-4.58-.27-6.6s-.39-3.86-.62-5.53c-.48-1.9-3.57-2.85-9.28-2.85h-1.61c-.71,0-1.07-.95-1.07-2.85s.36-2.85,1.07-2.85c3.69-.36,7.2-.83,10.53-1.43,3.33-.59,6.13-1.19,8.39-1.78,3.09-.95,6.66-2.14,10.71-3.57h.36c.47,0,.95.33,1.43.98.47.66.77,1.28.89,1.87-1.43,4.64-2.14,10.23-2.14,16.77v36.04c0,.71.24,1.07.71,1.07.12,0,.36-.18.71-.54,2.5-2.85,6.16-5.44,10.97-7.76,4.82-2.32,9.6-3.48,14.36-3.48,15.23,0,22.84,11.72,22.84,35.15v18.38c0,7.14.47,12.49,1.43,16.06.12.48.92,1.04,2.41,1.7,1.49.65,3.09,1.19,4.82,1.61,1.72.42,2.94.62,3.66.62.36,0,.56.86.62,2.59s.03,2.88-.09,3.48c-.48-.12-2.17-.27-5.09-.45-2.92-.18-5.98-.36-9.19-.54s-5.71-.27-7.49-.27c-1.9,0-4.4.09-7.49.27-3.1.18-5.98.36-8.65.54-2.68.18-4.43.33-5.26.45-.36-.6-.54-1.72-.54-3.39,0-1.78.18-2.68.54-2.68.95,0,2.23-.21,3.84-.62,1.61-.42,3.09-.95,4.46-1.61,1.37-.65,2.17-1.22,2.41-1.7.71-3.57,1.07-7.91,1.07-13.03v-17.49c0-9.87-1.34-16.68-4.01-20.43-2.68-3.75-6.93-5.62-12.76-5.62-3.57,0-6.84,1.01-9.81,3.03-2.98,2.02-4.46,4.28-4.46,6.78v30.69c0,7.14.47,12.49,1.43,16.06.24.48,1.07,1.04,2.5,1.7,1.43.65,2.97,1.19,4.64,1.61,1.66.42,2.85.62,3.57.62.36,0,.56.86.62,2.59s-.03,2.88-.27,3.48c-.6-.12-2.29-.27-5.09-.45-2.8-.18-5.74-.36-8.83-.54s-5.59-.27-7.49-.27-4.46.09-7.67.27c-3.21.18-6.22.36-9.01.54-2.8.18-4.55.33-5.26.45h-.03Z"/><path class="cls-10" d="M804.86,213.69c-.48-.48-.71-1.61-.71-3.39,0-1.66.24-2.5.71-2.5.95,0,2.2-.24,3.75-.71,1.54-.47,3-1.07,4.37-1.78,1.37-.71,2.11-1.31,2.23-1.78.47-2.02.83-4.16,1.07-6.42s.36-4.52.36-6.78v-28.73c0-5.59-.95-9.4-2.85-11.42-1.07-1.31-2.41-2.2-4.01-2.68-1.61-.47-3.03-.77-4.28-.89s-1.87-.3-1.87-.54c0-3.57.3-5.35.89-5.35,3.81-.47,8-1.16,12.58-2.05s8.71-1.75,12.4-2.59l5.71-1.43c.83,0,1.25,1.19,1.25,3.57,0,1.55-.21,3.78-.62,6.69-.42,2.92-.62,5.8-.62,8.65v33.9c0,7.49.42,12.85,1.25,16.06.24.48,1.01,1.07,2.32,1.78,1.31.71,2.73,1.31,4.28,1.78,1.54.48,2.62.71,3.21.71.36,0,.56.83.62,2.5s-.03,2.8-.27,3.39c-3.69-.24-7.44-.48-11.24-.71-3.81-.24-6.96-.36-9.46-.36-3.69,0-7.47.12-11.33.36-3.87.24-7.11.47-9.73.71h-.01ZM824.48,116.08c-2.98,0-5.53-1.07-7.67-3.21-2.14-2.14-3.21-4.7-3.21-7.67s1.07-5.5,3.21-7.58,4.7-3.12,7.67-3.12,5.5,1.04,7.58,3.12,3.12,4.61,3.12,7.58-1.04,5.53-3.12,7.67-4.61,3.21-7.58,3.21Z"/><path class="cls-10" d="M856.07,213.69c-.48-.48-.71-1.61-.71-3.39,0-1.66.24-2.5.71-2.5.95,0,2.2-.24,3.75-.71,1.54-.47,3-1.07,4.37-1.78,1.37-.71,2.11-1.31,2.23-1.78.47-2.02.83-4.16,1.07-6.42s.36-4.52.36-6.78v-74.23c0-4.52-.36-8.56-1.07-12.13-.48-1.9-3.45-2.85-8.92-2.85h-1.78c-.71,0-1.07-.71-1.07-2.14,0-1.9.36-2.85,1.07-2.85,6.54-.59,12.46-1.61,17.75-3.03,5.29-1.43,8.83-2.5,10.62-3.21l1.25-.54h.36c.47,0,.98.36,1.52,1.07s.86,1.31.98,1.78c-1.43,4.4-2.14,9.99-2.14,16.77v78.51c0,7.49.42,12.85,1.25,16.06.24.48,1.01,1.07,2.32,1.78,1.31.71,2.74,1.31,4.28,1.78,1.54.48,2.62.71,3.21.71.36,0,.56.83.62,2.5s-.03,2.8-.27,3.39c-3.69-.24-7.44-.48-11.24-.71-3.81-.24-6.96-.36-9.46-.36-3.69,0-7.47.12-11.33.36-3.87.24-7.11.47-9.73.71h0Z"/><path class="cls-10" d="M1053.42,214.22c-12.37,0-22.13-2.85-29.26-8.57-4.17-3.21-8-6.96-11.51-11.24s-6.57-8.48-9.19-12.58-4.76-7.46-6.42-10.08c-2.14-3.09-4.19-5.89-6.16-8.39s-4.85-3.75-8.65-3.75c-1.9,0-2.85,1.01-2.85,3.03v25.16c0,6.9.47,11.96,1.43,15.17.24.95,1.28,1.78,3.12,2.5,1.84.71,3.84,1.28,5.98,1.7,2.14.42,3.75.62,4.82.62.47,0,.71,1.01.71,3.03,0,1.07-.12,2.08-.36,3.03-12.97-.71-21.41-1.07-25.34-1.07-3.21,0-6.81.06-10.8.18s-7.17.3-9.55.54l-3.57.36c-.36-.6-.54-1.66-.54-3.21,0-1.9.18-2.85.54-2.85,1.07,0,2.5-.18,4.28-.54s3.48-.83,5.09-1.43c1.61-.59,2.53-1.25,2.77-1.96.71-2.14,1.07-7.55,1.07-16.24v-67.45c0-6.78-.36-11.66-1.07-14.63-.24-.71-1.16-1.4-2.77-2.05-1.61-.65-3.33-1.22-5.17-1.7-1.85-.47-3.24-.71-4.19-.71-.48,0-.71-.89-.71-2.68s.24-2.85.71-3.21c12.73.36,20.64.54,23.73.54,5.83-.12,10.35-.18,13.56-.18s5.65-.03,7.32-.09c1.66-.06,3.09-.09,4.28-.09,6.3,0,12.49,1.13,18.56,3.39,6.07,2.26,11.09,5.71,15.08,10.35,3.98,4.64,5.98,10.53,5.98,17.67,0,4.28-.95,8.45-2.85,12.49-1.9,4.05-4.46,7.61-7.67,10.71-3.21,3.1-6.84,5.47-10.88,7.14-.95.36-1.19.95-.71,1.78,3.33,5.95,6.66,11.45,9.99,16.51s6.66,9.67,9.99,13.83c4.16,5.12,8.65,9.49,13.47,13.12,4.82,3.63,9.25,5.44,13.29,5.44.47.6.71,1.55.71,2.85s-.24,2.38-.71,3.21c-.71.12-1.52.21-2.41.27s-1.94.09-3.12.09h-.02ZM990.79,151.05h4.64c4.4,0,8.36-2.08,11.87-6.25,3.51-4.16,5.26-9.57,5.26-16.24,0-16.18-6.9-24.27-20.7-24.27-5.12,0-8.56.42-10.35,1.25-1.43.6-2.14,6.78-2.14,18.56v20.52c0,2.62,1.01,4.34,3.03,5.17s4.82,1.25,8.39,1.25h0Z"/><path class="cls-10" d="M1096.25,214.22c-6.9,0-13.24-1.75-19-5.26-5.77-3.51-10.38-8.27-13.83-14.28s-5.17-12.64-5.17-19.9c0-8.09,1.61-15.17,4.82-21.23s7.58-10.8,13.12-14.19c5.53-3.39,11.87-5.09,19-5.09,5.83,0,10.82,1.07,14.99,3.21,4.16,2.14,7.58,4.91,10.26,8.3s4.64,6.96,5.89,10.71,1.87,7.23,1.87,10.44c0,2.62-.45,4.25-1.34,4.91s-2.71.98-5.44.98h-42.65c-.83,0-1.25.36-1.25,1.07,0,4.4.77,8.56,2.32,12.49,1.54,4.05,4.19,7.56,7.94,10.53,3.75,2.98,8.24,4.46,13.47,4.46,3.09,0,5.65-.24,7.67-.71s3.98-1.01,5.89-1.61c.95-.36,2.14-.98,3.57-1.87,1.43-.89,3.33-2.11,5.71-3.66.24.12.54.48.89,1.07.36.6.54,1.19.54,1.78,0,1.31-.36,2.44-1.07,3.39-1.19,2.14-3.18,4.31-5.98,6.51-2.8,2.2-6.1,4.08-9.9,5.62-3.81,1.54-7.91,2.32-12.31,2.32h0ZM1078.76,164.26h28.91c1.07,0,1.61-.89,1.61-2.68,0-2.85-.62-5.74-1.87-8.65-1.25-2.91-3.03-5.38-5.35-7.41-2.32-2.02-5.03-3.03-8.12-3.03-3.69,0-6.75,1.25-9.19,3.75s-4.22,5.35-5.35,8.56c-1.13,3.21-1.69,5.95-1.69,8.21,0,.83.36,1.25,1.07,1.25h-.02Z"/><path class="cls-10" d="M1174.05,214.22c-6.9,0-13.24-1.75-19-5.26-5.77-3.51-10.38-8.27-13.83-14.28s-5.17-12.64-5.17-19.9c0-8.09,1.61-15.17,4.82-21.23s7.58-10.8,13.12-14.19c5.53-3.39,11.87-5.09,19-5.09,5.83,0,10.82,1.07,14.99,3.21,4.16,2.14,7.58,4.91,10.26,8.3s4.64,6.96,5.89,10.71,1.87,7.23,1.87,10.44c0,2.62-.45,4.25-1.34,4.91s-2.71.98-5.44.98h-42.65c-.83,0-1.25.36-1.25,1.07,0,4.4.77,8.56,2.32,12.49,1.54,4.05,4.19,7.56,7.94,10.53,3.75,2.98,8.24,4.46,13.47,4.46,3.09,0,5.65-.24,7.67-.71s3.98-1.01,5.89-1.61c.95-.36,2.14-.98,3.57-1.87,1.43-.89,3.33-2.11,5.71-3.66.24.12.54.48.89,1.07.36.6.54,1.19.54,1.78,0,1.31-.36,2.44-1.07,3.39-1.19,2.14-3.18,4.31-5.98,6.51-2.8,2.2-6.1,4.08-9.9,5.62-3.81,1.54-7.91,2.32-12.31,2.32h0ZM1156.56,164.26h28.91c1.07,0,1.61-.89,1.61-2.68,0-2.85-.62-5.74-1.87-8.65-1.25-2.91-3.03-5.38-5.35-7.41-2.32-2.02-5.03-3.03-8.12-3.03-3.69,0-6.75,1.25-9.19,3.75s-4.22,5.35-5.35,8.56c-1.13,3.21-1.69,5.95-1.69,8.21,0,.83.36,1.25,1.07,1.25h-.02Z"/><path class="cls-10" d="M1240.07,214.93c-7.49,0-15.17-1.67-23.02-5-.36-1.43-.74-3.45-1.16-6.07-.42-2.62-.78-5.26-1.07-7.94-.3-2.68-.45-4.73-.45-6.16.83-.59,1.66-.89,2.5-.89,2.62,0,4.04.48,4.28,1.43.95,5,3.3,9.01,7.05,12.04s7.82,4.55,12.22,4.55c3.33,0,6.07-.86,8.21-2.59,2.14-1.72,3.21-4.31,3.21-7.76,0-2.5-.95-4.79-2.85-6.87s-3.69-3.54-5.35-4.37l-11.78-6.25c-5.47-2.85-9.7-6.04-12.67-9.55-2.97-3.51-4.46-7.76-4.46-12.76s1.34-8.98,4.02-12.31,6.18-5.89,10.53-7.67c4.34-1.78,9.01-2.68,14.01-2.68,6.42,0,13.32,1.01,20.7,3.03.59,2.62,1.04,5.59,1.34,8.92.3,3.33.5,7.02.62,11.06,0,.95-.77,1.43-2.32,1.43-2.62,0-4.05-.47-4.28-1.43-.83-4.16-2.59-7.7-5.26-10.62-2.68-2.91-6.28-4.37-10.8-4.37-3.45,0-6.16.77-8.12,2.32s-2.94,3.75-2.94,6.6c0,3.09,1.19,5.71,3.57,7.85s5.59,4.22,9.64,6.25c3.09,1.55,6.09,3.21,9.01,5,2.91,1.78,5.68,3.75,8.3,5.89,4.64,3.69,6.96,8.57,6.96,14.63,0,5-1.34,9.31-4.01,12.94-2.68,3.63-6.25,6.42-10.71,8.39s-9.43,2.94-14.9,2.94l-.02.02Z"/><path class="cls-10" d="M1319.3,214.22c-6.9,0-13.24-1.75-19-5.26-5.77-3.51-10.38-8.27-13.83-14.28s-5.17-12.64-5.17-19.9c0-8.09,1.61-15.17,4.82-21.23s7.58-10.8,13.12-14.19c5.53-3.39,11.87-5.09,19-5.09,5.83,0,10.82,1.07,14.99,3.21,4.16,2.14,7.58,4.91,10.26,8.3s4.64,6.96,5.89,10.71,1.87,7.23,1.87,10.44c0,2.62-.45,4.25-1.34,4.91s-2.71.98-5.44.98h-42.65c-.83,0-1.25.36-1.25,1.07,0,4.4.77,8.56,2.32,12.49,1.54,4.05,4.19,7.56,7.94,10.53,3.75,2.98,8.24,4.46,13.47,4.46,3.09,0,5.65-.24,7.67-.71s3.98-1.01,5.89-1.61c.95-.36,2.14-.98,3.57-1.87,1.43-.89,3.33-2.11,5.71-3.66.24.12.54.48.89,1.07.36.6.54,1.19.54,1.78,0,1.31-.36,2.44-1.07,3.39-1.19,2.14-3.18,4.31-5.98,6.51-2.8,2.2-6.1,4.08-9.9,5.62-3.81,1.54-7.91,2.32-12.31,2.32h0ZM1301.81,164.26h28.91c1.07,0,1.61-.89,1.61-2.68,0-2.85-.62-5.74-1.87-8.65-1.25-2.91-3.03-5.38-5.35-7.41-2.32-2.02-5.03-3.03-8.12-3.03-3.69,0-6.75,1.25-9.19,3.75s-4.22,5.35-5.35,8.56c-1.13,3.21-1.69,5.95-1.69,8.21,0,.83.36,1.25,1.07,1.25h-.02Z"/><path class="cls-10" d="M1352.22,242.77c-.6,0-1.43-.62-2.5-1.87s-1.61-2.29-1.61-3.12c0-.12,1.01-1.07,3.03-2.85s4.04-4.37,6.07-7.76c2.02-3.39,3.03-7.11,3.03-11.15,0-1.67-.45-3.33-1.34-5-.89-1.66-1.78-3.33-2.68-5-.89-1.66-1.34-3.39-1.34-5.17,0-2.5,1.25-5,3.75-7.49,2.5-2.5,5.77-3.75,9.81-3.75,2.62,0,4.52.36,5.71,1.07,1.66,3.57,2.5,7.73,2.5,12.49,0,6.31-2.02,13.08-6.07,20.34-4.05,7.25-10.11,13.68-18.2,19.27h-.18.02Z"/><path class="cls-10" d="M1507.22,213.73c-4.28,0-8.28-.84-12-2.53-3.73-1.68-7.02-3.99-9.87-6.9-2.85-2.92-5.07-6.3-6.66-10.16-1.59-3.85-2.38-7.95-2.38-12.3,0-4.6.81-8.93,2.43-12.98s3.89-7.61,6.8-10.69c2.92-3.08,6.32-5.49,10.21-7.24s8.07-2.62,12.54-2.62c7.32,0,14.97.87,22.94,2.62.13,0,.24.63.34,1.9s.18,2.76.24,4.47c.06,1.72.13,3.32.19,4.81.06,1.49.1,2.5.1,3.01,0,.97-.78,1.46-2.33,1.46-.45,0-.91-.13-1.36-.39-.26-1.17-.73-2.36-1.41-3.6-.68-1.23-1.7-2.62-3.06-4.18-1.36-1.56-3.37-2.83-6.03-3.84-2.66-1-5.73-1.51-9.23-1.51-4.21,0-7.82,1.21-10.84,3.65-3.01,2.43-5.31,5.65-6.9,9.67s-2.38,8.49-2.38,13.41c0,5.44.89,10.37,2.67,14.77,1.78,4.41,4.39,7.92,7.82,10.55,3.43,2.62,7.55,3.94,12.34,3.94,5.7,0,10.27-1.81,13.71-5.44,1.04-1.1,1.83-2.35,2.38-3.74s.99-2.62,1.31-3.69c.32-1.07.61-1.6.87-1.6,2.27,0,3.53.29,3.79.87,0,.39-.15,1.31-.44,2.77s-.63,3.05-1.02,4.76c-.39,1.72-.79,3.22-1.22,4.52-.42,1.3-.76,2.01-1.02,2.14-5.64,2.72-13.16,4.08-22.55,4.08h.02Z"/><path class="cls-10" d="M1538.9,213.44c-.19-.19-.29-.71-.29-1.56,0-1.1.1-1.65.29-1.65.58,0,1.34-.1,2.28-.29.94-.19,1.85-.45,2.72-.78.87-.32,1.38-.68,1.51-1.07.45-1.3.68-4.24.68-8.85v-36.74c0-3.95-.23-6.61-.68-7.97-.13-.52-.6-.96-1.41-1.31-.81-.36-1.72-.63-2.72-.83-1.01-.19-1.83-.29-2.48-.29-.26,0-.39-.49-.39-1.46,0-.91.13-1.49.39-1.75,4.28.19,8.59.29,12.93.29l8.36-.1h5.83c4.86,0,9.46,1.17,13.8,3.5,2.2,1.23,4,2.98,5.39,5.25s2.09,4.89,2.09,7.87c0,2.27-.68,4.44-2.04,6.51-1.36,2.01-2.64,3.42-3.84,4.23s-2.22,1.38-3.06,1.7c-.52.19-.65.39-.39.58,1.62.26,3.39,1.12,5.3,2.58s3.58,3.35,5.01,5.69c1.42,2.33,2.14,4.99,2.14,7.97,0,3.69-1.02,6.92-3.06,9.67s-4.91,4.86-8.6,6.32-8.04,2.19-13.02,2.19l-13.8-.1-12.93.39h0ZM1562.91,176.99c2.4,0,4.21-.19,5.44-.58,4.73-1.04,7.1-4.21,7.1-9.53,0-8.75-3.73-13.12-11.18-13.12-2.98,0-5.05.16-6.22.49-.52.13-.78.49-.78,1.07l-.19,9.33v11.37c0,.65,1.94.97,5.83.97h0ZM1564.47,208.29c1.42,0,2.82-.15,4.18-.44s2.85-.83,4.47-1.6c1.56-.71,2.83-1.96,3.84-3.74,1-1.78,1.51-3.94,1.51-6.46,0-4.15-1.15-7.56-3.45-10.25-2.3-2.69-6.01-4.03-11.13-4.03-.91,0-1.86.05-2.87.15-1.01.1-2.06.21-3.16.34-.52.33-.78.97-.78,1.94v18.08c0,2.66.39,4.34,1.17,5.05.84.65,2.92.97,6.22.97h0Z"/><path class="cls-10" d="M1595.86,213.44c-.26-.26-.39-.71-.39-1.36,0-1.23.13-1.85.39-1.85.52,0,1.26-.1,2.24-.29.97-.19,1.88-.47,2.72-.83s1.33-.7,1.46-1.02c.26-1.04.45-2.24.58-3.6s.19-2.88.19-4.57v-37.52c0-3.76-.26-6.48-.78-8.16-.13-.39-.6-.74-1.41-1.07-.81-.32-1.69-.6-2.62-.83-.94-.23-1.67-.34-2.19-.34-.26,0-.39-.49-.39-1.46,0-1.04.06-1.62.19-1.75l5.44.29c1.62.07,3.06.15,4.33.24s2.32.11,3.16.05l12.44-.58c.19.58.29,1.1.29,1.56,0,1.1-.13,1.65-.39,1.65-.39,0-1.07.13-2.04.39-.97.26-1.9.55-2.77.88s-1.38.65-1.51.97c-.26,1.04-.45,2.25-.58,3.65-.13,1.39-.19,3.03-.19,4.91v36.55c0,3.56.29,6.48.88,8.75.13.26.6.57,1.41.92.81.36,1.68.65,2.62.87.94.23,1.6.34,1.99.34.26,0,.39.62.39,1.85,0,.39-.07.84-.19,1.36l-12.34-.58c-2.27-.13-4.6-.1-7,.1-2.4.19-4.37.36-5.93.49h0Z"/></g><g><rect class="cls-12" x=".03" y="242.02" width="533.29" height="15.86"/><path class="cls-1" d="M336.87,273.05c-.1-.74-.17-1.49-.3-2.23-.26-1.44-1.2-2.22-2.58-2.49-.63-.13-1.28-.18-1.93-.23-.74-.05-1.07-.39-1.05-1.15.02-.67.43-1.12,1.09-1.08,1.62.1,3.24.28,4.86.35,1.59.07,3.18.11,4.77.05,1.69-.07,3.37-.29,5.06-.4.76-.05,1.21.39,1.21,1.07,0,.74-.38,1.11-1.13,1.17-2.12.16-3.57,1.33-4.61,3.1-1.13,1.92-1.7,4.06-2.39,6.14-1.81,5.47-3.61,10.95-5.41,16.43l-5.91,18c-.15.47-.28.95-.44,1.41-.23.62-.81.93-1.68.92-.75,0-1.19-.29-1.42-.93-1.67-4.71-3.34-9.43-5.01-14.14-2.1-5.94-4.21-11.88-6.28-17.82-.2-.57-.75-.69-1.06-.4-.12.11-.21.27-.25.43-1.43,4.68-2.85,9.37-4.27,14.06-.93,3.07-1.87,6.14-2.81,9.21-.85,2.79-1.7,5.59-2.55,8.38-.24.77-.78,1.2-1.52,1.22-.79.02-1.48-.41-1.73-1.12-1.36-3.85-2.72-7.7-4.06-11.56-1.88-5.43-3.77-10.86-5.6-16.3-1.07-3.21-2-6.46-3.06-9.67-.57-1.74-1.31-3.41-2.27-4.99-.79-1.28-1.88-2-3.36-2.14-.71-.07-1.43-.15-2.14-.22-.43-.04-.73-.38-.84-.95-.14-.75.28-1.32,1.03-1.28,2.03.11,4.06.3,6.1.37,2.07.07,4.14.05,6.21.04.7,0,1.4-.06,2.1-.1,2.24-.11,4.48-.22,6.72-.31.7-.03,1.04.28,1.07.89.03.77-.42,1.3-1.08,1.35-1.17.08-2.37.09-3.52.32-2.05.41-2.78,1.7-2.45,3.78.54,3.37,1.47,6.63,2.4,9.9,1.21,4.22,2.47,8.42,3.73,12.62.6,2.03,1.23,4.05,1.87,6.07.08.24.25.52.46.62.52.27.89.06,1.06-.55.3-1.05.6-2.1.89-3.15,1.12-3.94,2.24-7.88,3.37-11.81,1.57-5.49,3.15-10.99,4.72-16.48.31-1.1.62-2.2.94-3.3.2-.68.59-.97,1.3-.98.68-.01,1.12.3,1.34.95.96,2.92,1.93,5.83,2.89,8.75,1.75,5.28,3.5,10.56,5.26,15.84,1.14,3.44,2.28,6.87,3.42,10.31.24.72.53.92,1.1.64.19-.09.36-.35.44-.57,1.05-3.21,2.13-6.41,3.11-9.64.92-3.01,1.83-6.04,2.57-9.1.64-2.63,1.04-5.32,1.52-7.98.07-.42.01-.86.01-1.28.04,0,.07,0,.11-.01l-.02-.03Z"/><path class="cls-14" d="M453.35,291.92c0-2.26.04-4.53-.01-6.79-.04-1.64-.22-3.27-.29-4.9-.06-1.31-.38-2.54-.95-3.72-.35-.72-.98-1.01-1.71-1.12-.71-.1-1.43-.15-2.14-.21-.56-.05-.84-.34-.88-.9-.04-.52.48-1,.99-.95.98.1,1.97.23,2.95.27,1.68.07,3.36.14,5.03.09,1.51-.04,3.02-.26,4.54-.34.35-.02.8.09,1.04.32.35.33.33.92-.03,1.2-.34.26-.86.32-1.31.4-.59.11-1.19.12-1.77.23-.43.08-.72.32-.99.73-1,1.49-1.38,3.13-1.46,4.87-.06,1.38-.15,2.77-.15,4.15,0,4.75.08,9.5.03,14.25-.03,2.65-.4,5.28-1.47,7.74-.52,1.2-1.22,2.38-2.05,3.39-1.11,1.33-2.46,2.39-4.14,3.08-1.29.52-2.55,1.09-3.93,1.34-.99.17-1.98.29-2.98.37-1.07.08-2.16.15-3.23.1-2.67-.11-5.32-.42-7.86-1.32-2.11-.75-3.9-1.98-5.23-3.77-1.18-1.58-1.9-3.38-2.29-5.33-.42-2.1-.52-4.22-.51-6.36,0-5.87.03-11.73-.02-17.6,0-1-.22-2.03-.49-3-.44-1.53-1.66-2.28-3.13-2.63-.72-.18-1.48-.28-2.22-.31-.48-.02-.71-.36-.82-.93-.08-.43.26-.88.69-.92.42-.03.85.03,1.28.05,2.53.11,5.06.25,7.59.31,1.36.03,2.73-.04,4.09-.09,1.35-.05,2.7-.14,4.05-.22.37-.02.75-.05,1.12-.08.42-.03.92-.06,1.08.38.12.32.02.76-.1,1.1-.06.17-.37.32-.6.36-.95.19-1.91.3-2.85.51-1.59.37-2.47,1.45-2.72,3.02-.14.87-.21,1.76-.22,2.65-.05,6.02-.11,12.03-.09,18.05.01,2.68.45,5.29,1.8,7.69.96,1.71,2.27,3.03,3.98,4,1.89,1.07,3.92,1.36,6.06,1.35,2-.02,3.97-.25,5.79-1.08.95-.43,1.86-1.01,2.68-1.66,2.1-1.67,2.97-4.03,3.44-6.56.19-1.05.28-2.13.31-3.2.09-2.67.12-5.34.17-8.01h-.07Z"/><path class="cls-14" d="M506.36,300.18h-5.92c-.99,0-1.65.6-1.97,1.55-.45,1.33-1.02,2.62-1.52,3.94-.48,1.26-.98,2.5-1.36,3.79-.22.73-.22,1.55.34,2.19.27.31.61.64.98.75.97.3,1.97.5,2.96.72.26.06.57.02.8.14.17.08.3.33.35.53.07.25.12.57.03.79-.2.49-.66.56-1.15.51-.95-.1-1.89-.23-2.84-.29-1.48-.1-2.97-.21-4.45-.19-1.15.01-2.29.21-3.44.32-.64.06-1.29.14-1.93.16-.62.02-.99-.35-1.03-.96-.03-.55.33-.9.94-1,.7-.11,1.4-.25,2.1-.42,1.23-.3,2.09-1.11,2.77-2.13,1.07-1.6,1.7-3.41,2.42-5.17,1.38-3.39,2.76-6.78,4.13-10.17,1.28-3.17,2.55-6.35,3.84-9.52,1.79-4.4,3.58-8.8,5.37-13.2.13-.32.34-.54.72-.55.58-.02,1.21-.04,1.49.55.36.77.57,1.6.89,2.39.26.64.6,1.24.86,1.88.55,1.39,1.05,2.8,1.61,4.18,1.04,2.57,2.11,5.12,3.15,7.68.55,1.37,1.04,2.76,1.6,4.13.65,1.6,1.37,3.17,2.02,4.76.45,1.09.82,2.22,1.28,3.31.78,1.87,1.58,3.73,2.41,5.58.56,1.27,1.13,2.54,1.79,3.76.86,1.6,2.24,2.54,4.04,2.83.28.05.57.11.85.18.52.12.67.56.66.97-.02.68-.32.95-.96.91-1.37-.09-2.75-.25-4.12-.36-.71-.06-1.43-.12-2.15-.13-1.25-.02-2.51-.05-3.76,0-1,.04-1.99.19-2.99.29-.42.04-.85.09-1.27.11-.82.04-1.64.08-2.46.1-.6.01-.98-.31-1.03-.84-.07-.61.17-.93.82-1.07.85-.18,1.71-.29,2.55-.52,1.1-.31,1.61-1.01,1.56-2.16-.03-.76-.11-1.55-.36-2.26-.79-2.28-1.67-4.54-2.51-6.8-.35-.94-1.08-1.26-2.01-1.26h-6.1ZM506.41,297.99h0c1.73,0,3.47.04,5.2-.02,1.18-.04,1.6-.24,1.11-1.58-.65-1.78-1.34-3.55-2.01-5.33-1.11-2.92-2.23-5.85-3.34-8.77-.12-.32-.3-.52-.66-.54-.38-.02-.55.22-.68.52-.28.69-.56,1.39-.83,2.08-1,2.52-2,5.05-3.01,7.57-.6,1.51-1.21,3.02-1.8,4.54-.43,1.09-.14,1.51,1.02,1.52h5Z"/><path class="cls-14" d="M483.58,306c-.03-2.12-.74-3.94-2.17-5.49-.01-.01-.03-.02-.04-.03-.25-.68-.9-.96-1.4-1.38-.53-.45-1.1-.88-1.71-1.2-2.05-1.07-4.13-2.1-6.2-3.12-1.2-.59-2.44-1.09-3.62-1.72-.75-.4-1.43-.93-2.1-1.45-.6-.46-1.2-.94-1.69-1.51-1.17-1.35-2.13-2.83-2.35-4.66-.11-.88-.21-1.76-.2-2.65.03-2.15.7-4.08,2.14-5.74,1.68-1.94,3.88-2.98,6.29-3.62,1.57-.41,3.17-.57,4.8-.67,2.46-.14,4.82.23,7.13,1.02.53.18,1.08.31,1.63.41.64.12,1.21,0,1.6-.61.24-.39.92-.53,1.33-.28.13.08.26.32.23.46-.36,1.73-.48,3.48-.39,5.24.06,1.15.22,2.3.33,3.46.05.47.11.94.17,1.42.06.48-.33.58-.64.65-.41.08-.86.08-1.02-.43-.19-.62-.34-1.25-.5-1.87-.37-1.37-.82-2.7-1.56-3.92-1.01-1.66-2.52-2.59-4.41-2.9-1.01-.17-2.04-.29-3.06-.3-1.95-.02-3.82.28-5.56,1.28-2.14,1.24-3.08,3.84-2.78,6.07.16,1.17.55,2.22,1.31,3.1.42.5.95.92,1.46,1.33,1.44,1.18,3.23,1.65,4.86,2.47,1.91.95,3.85,1.84,5.72,2.85,1.15.62,2.23,1.37,3.29,2.14,1.12.81,2.01,1.86,2.83,2.98.83,1.14,1.43,2.36,1.72,3.71.54,2.61.54,5.21-.64,7.68-.65,1.36-1.63,2.49-2.8,3.42-1.83,1.46-3.93,2.36-6.23,2.87-2.09.46-4.2.64-6.31.47-1.48-.12-2.97-.38-4.36-1.03-.91-.42-1.84-.79-2.76-1.19-.82-.35-1.59-.26-2.21.37-.28.29-.44.7-.64,1.07-.21.39-.51.63-.98.6-.58-.04-.83-.29-.73-.85.45-2.49.47-5,.4-7.51-.04-1.53-.2-3.06-.32-4.59-.04-.51.15-.79.7-.94.42-.11.98.15,1.09.54.1.38.13.77.22,1.15.52,2.34,1.44,4.49,3.05,6.32,1.82,2.07,4.08,3.35,6.81,3.68,2.27.27,4.49.03,6.57-1.03,1.8-.92,2.98-2.34,3.47-4.3.14-.57.15-1.18.22-1.77h.01Z"/><path class="cls-1" d="M358.2,295.36h-9.89c-.48,0-.65.13-.66.63-.04,2.67.22,5.29,1.29,7.77,1.31,3.02,3.56,4.86,6.79,5.53,2.02.42,4.04.35,6.08.13,1.21-.13,2.43-.23,3.55-.74.71-.32,1.38-.73,2.04-1.16.54-.35.93-.36,1.37.09.44.44.45.84.05,1.36-2.12,2.77-4.92,4.34-8.37,4.74-1.43.16-2.87.31-4.3.28-3.59-.07-7-.82-9.96-3-2.44-1.79-4.06-4.18-5-7.04-.78-2.36-1.1-4.8-1-7.27.16-4.45,1.61-8.42,4.8-11.6,2.57-2.56,5.68-4.12,9.33-4.51,3.82-.41,7.37.25,10.46,2.66,2.11,1.64,3.44,3.82,4.21,6.36.42,1.38.62,2.8.63,4.24,0,1.15-.4,1.54-1.54,1.54h-9.89.01ZM354.86,292.95h6.49c.73,0,1-.22,1.12-.93.22-1.23.17-2.46-.15-3.67-1.51-5.68-6.82-6.63-10.56-4.35-3.12,1.9-3.69,5.08-3.93,8.37-.03.44.24.59.7.59,2.11-.02,4.22-.01,6.33-.01h0Z"/><path class="cls-1" d="M385.46,280.45c1.88-.09,4.1.6,6.14,1.91.79.51,1.4.29,1.79-.61.32-.74.8-.96,1.56-.72.33.11.5.26.39.68-.61,2.35-.54,4.75-.39,7.14.04.58.03,1.17.02,1.75,0,.37-.4.65-.96.63-.43-.02-.8-.11-.92-.68-.32-1.57-.87-3.05-1.73-4.42-.9-1.43-2.15-2.37-3.81-2.74-1.9-.42-3.79-.5-5.66.16-2.11.74-3.33,2.39-3.3,4.46.02,1.33.63,2.3,1.76,2.99,1.53.94,3.21,1.52,4.88,2.12,2.78.99,5.51,2.08,7.94,3.78,2.09,1.46,3.61,3.38,4.03,5.96.74,4.56-1.16,7.92-5.38,9.79-1.82.8-3.76,1.13-5.74,1.26-3.24.22-6.37-.29-9.39-1.48-.74-.29-1.4.04-1.67.81-.23.64-1.18.93-1.68.49-.12-.11-.15-.37-.14-.55.07-.92.27-1.84.23-2.75-.08-1.91-.29-3.82-.45-5.72-.03-.34-.03-.68-.07-1.02-.06-.47.18-.7.62-.77.71-.12,1.14.04,1.27.52.45,1.6.98,3.17,1.93,4.56,1.4,2.05,3.38,3.13,5.81,3.47,1.55.21,3.1.34,4.63-.1,2.82-.82,3.95-3.03,3.75-5.67-.15-2.04-1.53-3.14-3.1-4.12-1.91-1.2-4.05-1.9-6.11-2.78-1.62-.69-3.26-1.33-4.82-2.15-2.02-1.06-3.41-2.74-3.81-5.02-.78-4.43.79-7.81,5.18-9.83,2.1-.97,4.34-1.31,7.19-1.34h.01Z"/><path class="cls-1" d="M402.62,295.71v-9.36c0-1.24-.29-1.53-1.54-1.59-.75-.03-1.51-.03-2.26-.1-.19-.02-.47-.19-.52-.35-.13-.45-.22-.94-.2-1.4.03-.63.24-.73.88-.82.86-.12,1.72-.25,2.56-.47,2.09-.53,3.32-1.96,3.92-3.96.29-.98.55-1.98.7-2.99.1-.71.44-1.07,1.09-1.12.5-.04,1.01-.02,1.51.06.37.06.53.34.53.76-.02,2.11-.01,4.22,0,6.33,0,.84.08.9.92.9h7.26c.7,0,.9.14.98.83.06.5.02,1.02-.04,1.51-.06.51-.39.73-.94.73-2.42-.02-4.84-.01-7.26,0-.81,0-.92.11-.92.92,0,6.07-.02,12.14.02,18.21,0,1.42.19,2.83.7,4.18.56,1.48,1.64,2.25,3.2,2.31,1.92.07,3.73-.4,5.41-1.35.7-.4,1.43-.1,1.56.69.03.16-.06.37-.16.51-1.09,1.68-2.61,2.78-4.54,3.31-2.47.67-4.96.7-7.47.16-2.95-.64-4.57-2.55-5.08-5.43-.2-1.16-.29-2.34-.31-3.52-.04-2.98-.01-5.97-.01-8.95h0Z"/><path class="cls-6" d="M421.2,329.3c-.7.16-1.19-.02-1.65-.48-.95-.94-1.95-1.83-2.95-2.71-.21-.18-.53-.32-.8-.33-1.18-.04-2.36-.02-3.6-.02v3.55h-.84v-8.54s.07-.06.1-.06c2.23.05,4.45.06,6.68.18.58.03,1.2.32,1.71.63,1.42.87,1.39,2.59-.08,3.39-.57.31-1.25.45-1.88.65-.16.05-.33.06-.63.11,1.34,1.23,2.62,2.4,3.95,3.61v.02ZM412.23,321.24v3.97c1.61,0,3.17.03,4.73-.01.83-.02,1.64-.21,2.32-.72.97-.72.95-1.92-.07-2.55-.4-.25-.88-.47-1.33-.49-1.88-.11-3.76-.14-5.65-.2h0Z"/><path class="cls-6" d="M437.3,324.74v.55h-7.03v3.52h7.91c.01.19.02.34.03.52h-8.78v-8.58h8.7v.52h-7.85v3.47h7.03-.01Z"/><path class="cls-6" d="M445.52,329.31c.79-1.21,1.56-2.4,2.34-3.58,1.04-1.59,2.09-3.18,3.14-4.76.28-.42.96-.43,1.23-.02,1.79,2.72,3.58,5.44,5.36,8.16.04.05.06.11.1.19-.6.19-.98.03-1.27-.51-.28-.53-.62-1.03-.98-1.51-.12-.16-.37-.32-.56-.33-2.2-.02-4.39-.02-6.59,0-.19,0-.45.16-.57.32-.37.5-.73,1-1,1.55-.27.54-.66.62-1.22.48h.02ZM451.61,321.31c-1.12,1.72-2.18,3.36-3.29,5.07h6.57c-1.1-1.7-2.16-3.34-3.27-5.07h-.01Z"/><path class="cls-6" d="M501.52,329.31c0-.96.02-1.94-.02-2.91-.01-.27-.15-.59-.34-.79-1.54-1.56-3.11-3.1-4.67-4.65-.06-.06-.1-.12-.18-.22.59-.08,1.04-.05,1.47.41,1.2,1.29,2.47,2.53,3.71,3.78.14.14.3.28.58.55.29-.35.54-.7.83-1.01,1.03-1.06,2.11-2.07,3.1-3.15.44-.48.87-.73,1.59-.56-.32.33-.62.64-.93.95-1.33,1.32-2.67,2.62-3.98,3.95-.18.18-.29.5-.3.76-.04.74-.01,1.47,0,2.21,0,.53-.29.75-.88.67h.02Z"/><path class="cls-6" d="M479.9,321.3v-.56h9.44v.53h-4.29v8.06h-.84v-8.04h-4.32.01Z"/><path class="cls-6" d="M465.8,320.74h.81v8.09h6.86c.35,0,.54.08.41.5h-8.08v-8.59h0Z"/><path class="cls-11" d="M247.42,224.06h-7.51c-.84,0-1.53-.2-2.08-.59-.54-.39-.92-.89-1.13-1.5l-2.47-7.28h-15.88l-2.47,7.28c-.19.54-.56,1.02-1.12,1.45-.55.43-1.23.64-2.04.64h-7.57l16.17-41.77h9.92l16.17,41.77h.01ZM220.59,208.1h11.41l-3.84-11.44c-.25-.73-.54-1.58-.87-2.57-.33-.98-.66-2.05-.99-3.2-.31,1.17-.62,2.25-.95,3.24-.32.99-.63,1.85-.92,2.58l-3.84,11.38h0Z"/><path class="cls-11" d="M272.24,201.39c-.27.33-.53.58-.77.77-.25.19-.6.29-1.06.29s-.84-.1-1.19-.32c-.35-.21-.75-.44-1.19-.7s-.96-.49-1.55-.7c-.59-.21-1.33-.32-2.21-.32-1.09,0-2.03.2-2.82.6-.79.4-1.45.97-1.96,1.72-.52.75-.9,1.66-1.15,2.74s-.37,2.3-.37,3.65c0,2.85.55,5.04,1.65,6.56,1.1,1.53,2.61,2.29,4.54,2.29,1.03,0,1.85-.13,2.45-.39s1.11-.54,1.53-.86.81-.61,1.16-.87c.35-.27.8-.4,1.33-.4.71,0,1.24.26,1.61.77l2.58,3.18c-.92,1.05-1.88,1.91-2.89,2.57s-2.05,1.18-3.11,1.55c-1.06.37-2.13.63-3.2.77s-2.11.22-3.12.22c-1.82,0-3.55-.34-5.2-1.03-1.65-.69-3.11-1.69-4.36-3s-2.25-2.92-2.98-4.83c-.74-1.91-1.1-4.09-1.1-6.54,0-2.14.32-4.14.96-6.01.64-1.86,1.59-3.48,2.84-4.84,1.25-1.37,2.8-2.44,4.64-3.22s3.98-1.18,6.41-1.18,4.38.37,6.13,1.12c1.76.75,3.34,1.83,4.76,3.27l-2.35,3.12v.02Z"/><path class="cls-11" d="M305.04,194.34v39.16h-8.89v-12.67c-1.13,1.11-2.39,2-3.78,2.68-1.4.68-3.04,1.02-4.93,1.02-1.55,0-2.98-.34-4.3-1.03-1.32-.69-2.46-1.68-3.41-2.98-.96-1.3-1.71-2.89-2.25-4.77s-.82-4.03-.82-6.44c0-2.22.31-4.28.92-6.18.61-1.9,1.48-3.54,2.59-4.93,1.12-1.39,2.46-2.47,4.03-3.25s3.3-1.18,5.19-1.18c.9,0,1.71.08,2.44.23s1.39.37,1.99.66c.6.29,1.16.63,1.68,1.03s1.01.84,1.49,1.32l.37-1.18c.34-.99,1.07-1.49,2.18-1.49h5.5ZM290.53,217.7c.65,0,1.24-.06,1.76-.19.53-.12,1.01-.3,1.45-.53s.86-.52,1.25-.86.78-.75,1.16-1.2v-12.61c-.69-.73-1.42-1.24-2.19-1.55s-1.59-.46-2.45-.46-1.58.16-2.26.49c-.69.32-1.29.85-1.79,1.56-.51.72-.9,1.65-1.19,2.79-.29,1.15-.43,2.53-.43,4.16s.11,2.89.34,3.96.55,1.93.96,2.59.9,1.13,1.48,1.42c.57.29,1.21.43,1.92.43h-.01Z"/><path class="cls-11" d="M320.23,194.34v18.86c0,1.47.33,2.61,1,3.41s1.65,1.2,2.95,1.2c.97,0,1.89-.2,2.74-.6.85-.4,1.68-.96,2.48-1.69v-21.18h8.89v29.73h-5.5c-1.11,0-1.83-.5-2.18-1.49l-.54-1.72c-.57.55-1.17,1.06-1.78,1.5-.61.45-1.27.83-1.96,1.15-.7.32-1.45.56-2.25.75-.8.18-1.68.27-2.64.27-1.62,0-3.06-.28-4.31-.85s-2.31-1.35-3.17-2.36c-.86-1.01-1.51-2.21-1.95-3.58-.44-1.38-.66-2.88-.66-4.53v-18.86h8.89-.01Z"/><path class="cls-11" d="M355.37,186.2c0,.71-.14,1.37-.43,1.99-.29.62-.68,1.17-1.17,1.63-.5.47-1.08.84-1.73,1.12-.66.28-1.36.42-2.11.42s-1.4-.14-2.04-.42c-.63-.28-1.19-.65-1.68-1.12s-.87-1.01-1.15-1.63-.42-1.29-.42-1.99.14-1.4.42-2.03.66-1.18,1.15-1.66c.49-.48,1.05-.85,1.68-1.12.63-.27,1.31-.4,2.04-.4s1.45.13,2.11.4c.66.27,1.24.64,1.73,1.12.5.48.89,1.03,1.17,1.66.29.63.43,1.31.43,2.03ZM354.34,194.34v29.73h-8.89v-29.73h8.89Z"/><path class="cls-11" d="M379.68,200.84c-.23.36-.47.62-.73.77-.26.15-.59.23-.99.23s-.84-.09-1.26-.27c-.42-.18-.87-.38-1.36-.59-.49-.21-1.04-.41-1.65-.59s-1.31-.27-2.09-.27c-1.13,0-1.99.22-2.59.65s-.9,1.03-.9,1.79c0,.55.2,1.01.59,1.38.39.36.91.68,1.56.96.65.28,1.39.54,2.21.79.82.25,1.66.53,2.52.83.86.31,1.7.66,2.52,1.08s1.56.92,2.21,1.52,1.17,1.33,1.56,2.19c.39.86.59,1.89.59,3.1,0,1.47-.27,2.83-.8,4.07s-1.33,2.31-2.39,3.21c-1.06.9-2.37,1.6-3.93,2.09s-3.35.75-5.37.75c-1.01,0-2.03-.1-3.04-.29-1.01-.19-1.99-.45-2.94-.77s-1.82-.71-2.62-1.16-1.49-.93-2.06-1.45l2.06-3.27c.25-.38.54-.68.89-.9.34-.22.79-.33,1.35-.33.52,0,.98.11,1.39.34s.86.48,1.33.75c.48.27,1.04.52,1.68.75.64.23,1.45.34,2.42.34.69,0,1.27-.07,1.75-.22.48-.14.86-.34,1.15-.59s.5-.53.63-.83c.13-.31.2-.62.2-.95,0-.59-.2-1.08-.6-1.46s-.93-.71-1.58-.99-1.39-.53-2.22-.77-1.68-.51-2.54-.82-1.7-.67-2.54-1.1c-.83-.43-1.57-.97-2.22-1.63s-1.18-1.47-1.58-2.42c-.4-.96-.6-2.11-.6-3.47,0-1.26.24-2.46.73-3.6.49-1.14,1.22-2.14,2.19-3,.98-.86,2.2-1.54,3.67-2.05,1.47-.51,3.19-.76,5.16-.76,1.07,0,2.11.1,3.11.29,1,.19,1.94.46,2.82.8s1.68.75,2.41,1.22,1.37.98,1.92,1.53l-2.01,3.12h-.01Z"/><path class="cls-11" d="M396.93,186.2c0,.71-.14,1.37-.43,1.99-.29.62-.68,1.17-1.17,1.63-.5.47-1.08.84-1.73,1.12-.66.28-1.36.42-2.11.42s-1.4-.14-2.04-.42c-.63-.28-1.19-.65-1.68-1.12s-.87-1.01-1.15-1.63-.42-1.29-.42-1.99.14-1.4.42-2.03.66-1.18,1.15-1.66c.49-.48,1.05-.85,1.68-1.12.63-.27,1.31-.4,2.04-.4s1.45.13,2.11.4c.66.27,1.24.64,1.73,1.12.5.48.89,1.03,1.17,1.66.29.63.43,1.31.43,2.03ZM395.9,194.34v29.73h-8.89v-29.73h8.89Z"/><path class="cls-11" d="M413.5,224.52c-1.41,0-2.66-.21-3.74-.62s-1.99-.99-2.72-1.75-1.29-1.67-1.68-2.74c-.38-1.07-.57-2.26-.57-3.58v-15.36h-2.52c-.46,0-.85-.15-1.17-.44-.33-.3-.49-.73-.49-1.3v-3.47l4.73-.92,1.75-7.25c.23-.92.88-1.38,1.95-1.38h4.64v8.69h7.22v6.08h-7.22v14.76c0,.69.17,1.26.5,1.71.33.45.82.67,1.45.67.32,0,.6-.03.82-.1s.41-.14.57-.23.32-.16.46-.23.31-.1.5-.1c.27,0,.48.06.64.19.16.12.33.32.5.59l2.69,4.21c-1.15.86-2.44,1.5-3.87,1.93s-2.91.65-4.44.65h0Z"/><path class="cls-11" d="M436.2,186.2c0,.71-.14,1.37-.43,1.99-.29.62-.68,1.17-1.17,1.63-.5.47-1.08.84-1.73,1.12-.66.28-1.36.42-2.11.42s-1.4-.14-2.04-.42c-.63-.28-1.19-.65-1.68-1.12s-.87-1.01-1.15-1.63-.42-1.29-.42-1.99.14-1.4.42-2.03.66-1.18,1.15-1.66c.49-.48,1.05-.85,1.68-1.12.63-.27,1.31-.4,2.04-.4s1.45.13,2.11.4c.66.27,1.24.64,1.73,1.12.5.48.89,1.03,1.17,1.66.29.63.43,1.31.43,2.03ZM435.17,194.34v29.73h-8.89v-29.73h8.89Z"/><path class="cls-11" d="M455.58,193.88c2.25,0,4.31.35,6.16,1.06,1.85.71,3.44,1.72,4.77,3.04,1.33,1.32,2.36,2.92,3.1,4.8.74,1.88,1.1,4,1.1,6.35s-.37,4.51-1.1,6.41c-.74,1.9-1.77,3.52-3.1,4.84-1.33,1.33-2.92,2.35-4.77,3.07-1.85.72-3.91,1.08-6.16,1.08s-4.34-.36-6.21-1.08c-1.86-.72-3.47-1.74-4.82-3.07s-2.39-2.94-3.12-4.84-1.1-4.04-1.1-6.41.37-4.47,1.1-6.35c.74-1.88,1.78-3.48,3.12-4.8,1.35-1.32,2.95-2.33,4.82-3.04,1.86-.71,3.93-1.06,6.21-1.06ZM455.58,217.93c2.05,0,3.55-.72,4.52-2.16.96-1.44,1.45-3.64,1.45-6.58s-.48-5.13-1.45-6.56-2.47-2.15-4.52-2.15-3.64.72-4.61,2.15c-.97,1.43-1.46,3.62-1.46,6.56s.49,5.14,1.46,6.58,2.51,2.16,4.61,2.16Z"/><path class="cls-11" d="M475.59,224.06v-29.73h5.5c.55,0,1.02.12,1.39.37.37.25.63.62.79,1.12l.52,1.72c.57-.53,1.17-1.03,1.78-1.49s1.27-.85,1.96-1.16c.7-.32,1.45-.56,2.26-.75.81-.18,1.69-.27,2.65-.27,1.62,0,3.06.28,4.31.85,1.25.56,2.31,1.35,3.17,2.35.86,1,1.51,2.2,1.95,3.58.44,1.39.66,2.89.66,4.51v18.89h-8.89v-18.89c0-1.45-.33-2.58-1-3.4-.67-.81-1.65-1.22-2.95-1.22-.97,0-1.89.21-2.75.63s-1.68.98-2.46,1.69v21.18h-8.89v.02Z"/><path class="cls-11" d="M527.01,200.84c-.23.36-.47.62-.73.77-.26.15-.59.23-.99.23s-.84-.09-1.26-.27c-.42-.18-.87-.38-1.36-.59-.49-.21-1.04-.41-1.65-.59-.61-.18-1.31-.27-2.09-.27-1.13,0-1.99.22-2.59.65-.6.43-.9,1.03-.9,1.79,0,.55.2,1.01.59,1.38.39.36.91.68,1.56.96.65.28,1.39.54,2.21.79s1.66.53,2.52.83c.86.31,1.7.66,2.52,1.08s1.56.92,2.21,1.52,1.17,1.33,1.56,2.19.59,1.89.59,3.1c0,1.47-.27,2.83-.8,4.07-.53,1.24-1.33,2.31-2.39,3.21-1.06.9-2.37,1.6-3.93,2.09s-3.35.75-5.37.75c-1.01,0-2.03-.1-3.04-.29-1.01-.19-1.99-.45-2.94-.77s-1.82-.71-2.62-1.16-1.49-.93-2.06-1.45l2.06-3.27c.25-.38.54-.68.89-.9.34-.22.79-.33,1.35-.33.52,0,.98.11,1.39.34s.86.48,1.33.75c.48.27,1.04.52,1.68.75s1.45.34,2.42.34c.69,0,1.27-.07,1.75-.22.48-.14.86-.34,1.15-.59.29-.25.5-.53.63-.83.13-.31.2-.62.2-.95,0-.59-.2-1.08-.6-1.46-.4-.38-.93-.71-1.58-.99s-1.39-.53-2.22-.77c-.83-.24-1.68-.51-2.54-.82s-1.7-.67-2.54-1.1c-.83-.43-1.57-.97-2.22-1.63s-1.18-1.47-1.58-2.42c-.4-.96-.6-2.11-.6-3.47,0-1.26.24-2.46.73-3.6.49-1.14,1.22-2.14,2.19-3,.98-.86,2.2-1.54,3.67-2.05,1.47-.51,3.19-.76,5.16-.76,1.07,0,2.11.1,3.11.29,1,.19,1.94.46,2.82.8s1.68.75,2.41,1.22,1.37.98,1.92,1.53l-2.01,3.12h-.01Z"/><path class="cls-11" d="M27.38,191.85c-.3.48-.61.83-.94,1.07s-.75.36-1.27.36c-.46,0-.95-.14-1.48-.43s-1.12-.61-1.79-.97-1.43-.68-2.28-.97-1.83-.43-2.92-.43c-1.89,0-3.29.4-4.22,1.21-.92.8-1.39,1.89-1.39,3.26,0,.87.28,1.6.83,2.18.56.58,1.29,1.07,2.19,1.49s1.94.8,3.1,1.15c1.16.35,2.35.74,3.56,1.16s2.4.93,3.56,1.5c1.16.58,2.19,1.31,3.1,2.21.9.89,1.63,1.98,2.19,3.26.56,1.28.83,2.83.83,4.63,0,2.01-.35,3.88-1.04,5.63-.7,1.75-1.7,3.27-3.02,4.57s-2.95,2.32-4.89,3.07c-1.94.75-4.14,1.12-6.6,1.12-1.35,0-2.73-.14-4.13-.42-1.4-.28-2.76-.67-4.07-1.18s-2.54-1.11-3.69-1.8c-1.15-.7-2.16-1.47-3.01-2.32l2.98-4.71c.22-.36.53-.65.92-.86.4-.22.82-.33,1.28-.33.6,0,1.2.19,1.8.57.61.38,1.29.79,2.06,1.25s1.64.87,2.64,1.25c.99.38,2.16.57,3.52.57,1.83,0,3.25-.4,4.26-1.21,1.01-.8,1.52-2.08,1.52-3.83,0-1.01-.28-1.84-.83-2.47-.56-.64-1.29-1.16-2.19-1.58-.9-.42-1.93-.78-3.08-1.1s-2.33-.67-3.55-1.06c-1.21-.39-2.39-.86-3.55-1.43-1.15-.57-2.18-1.31-3.08-2.24-.9-.92-1.63-2.08-2.19-3.46s-.84-3.08-.84-5.11c0-1.63.33-3.22.98-4.77.65-1.55,1.62-2.93,2.89-4.14s2.83-2.18,4.68-2.91c1.85-.72,3.96-1.09,6.35-1.09,1.33,0,2.63.1,3.89.31s2.46.52,3.59.92,2.19.89,3.17,1.46,1.86,1.21,2.64,1.92l-2.5,4.68.02.02Z"/><path class="cls-11" d="M56.83,226.45c-.88,0-1.53-.12-1.98-.36s-.82-.73-1.12-1.49l-.66-1.7c-.77.66-1.52,1.23-2.23,1.73-.72.5-1.46.92-2.22,1.27-.77.35-1.58.61-2.44.77-.86.17-1.82.25-2.88.25-1.41,0-2.69-.18-3.84-.55-1.15-.37-2.13-.91-2.94-1.63s-1.43-1.61-1.86-2.68c-.44-1.07-.66-2.3-.66-3.69,0-1.1.28-2.22.84-3.38s1.52-2.21,2.89-3.15c1.37-.95,3.22-1.74,5.54-2.38s5.26-.96,8.79-.96v-1.32c0-1.82-.37-3.14-1.12-3.95s-1.8-1.22-3.17-1.22c-1.09,0-1.99.12-2.68.36-.7.24-1.32.51-1.86.8-.55.3-1.08.57-1.59.8-.52.24-1.13.36-1.85.36-.64,0-1.18-.15-1.62-.46-.45-.31-.8-.69-1.06-1.15l-1.67-2.89c1.87-1.65,3.94-2.88,6.21-3.68,2.27-.8,4.71-1.21,7.32-1.21,1.87,0,3.55.3,5.05.91s2.77,1.45,3.81,2.53,1.84,2.37,2.4,3.86.83,3.12.83,4.89v19.31h-4.23ZM46.22,220.82c1.19,0,2.24-.21,3.13-.63s1.8-1.09,2.71-2.03v-4.23c-1.85,0-3.37.12-4.56.36-1.19.24-2.14.54-2.83.9s-1.18.77-1.44,1.23c-.27.46-.4.96-.4,1.5,0,1.06.29,1.81.86,2.24.58.43,1.42.65,2.53.65h0Z"/><path class="cls-11" d="M77.15,181.84v44.61h-9.24v-44.61h9.24Z"/><path class="cls-11" d="M97.83,195.07c2.05,0,3.92.32,5.62.95,1.7.64,3.16,1.56,4.38,2.77s2.17,2.7,2.86,4.45c.68,1.76,1.03,3.75,1.03,5.97,0,.7-.03,1.26-.09,1.7s-.17.79-.33,1.04c-.16.26-.37.44-.64.54-.27.1-.61.15-1.03.15h-17.82c.3,2.58,1.08,4.45,2.35,5.62,1.27,1.16,2.91,1.74,4.92,1.74,1.07,0,2-.13,2.77-.39s1.46-.55,2.07-.86,1.16-.61,1.67-.86c.51-.26,1.04-.39,1.59-.39.73,0,1.29.27,1.67.8l2.68,3.31c-.95,1.09-1.98,1.98-3.08,2.67s-2.23,1.22-3.4,1.61c-1.16.39-2.32.66-3.49.8-1.16.15-2.27.22-3.32.22-2.17,0-4.2-.35-6.09-1.06-1.9-.7-3.56-1.75-4.98-3.14-1.42-1.39-2.54-3.12-3.37-5.18-.82-2.07-1.24-4.47-1.24-7.21,0-2.07.35-4.02,1.06-5.87.7-1.85,1.72-3.47,3.04-4.86s2.92-2.49,4.8-3.31,4-1.22,6.36-1.22h.01ZM98,201.45c-1.77,0-3.15.5-4.14,1.5s-1.65,2.45-1.97,4.34h11.53c0-.73-.09-1.45-.28-2.15-.19-.69-.5-1.32-.92-1.86-.43-.55-.99-.99-1.68-1.33s-1.54-.51-2.53-.51h-.01Z"/><path class="cls-11" d="M135.91,202.31c-.24.38-.49.65-.76.8-.27.16-.61.24-1.03.24s-.87-.09-1.31-.28-.91-.39-1.42-.61-1.08-.42-1.71-.61c-.64-.19-1.36-.28-2.18-.28-1.17,0-2.07.22-2.7.67s-.94,1.07-.94,1.86c0,.58.2,1.05.61,1.43.41.38.95.71,1.62,1,.68.29,1.44.56,2.29.82.85.26,1.73.55,2.62.86.89.32,1.77.69,2.62,1.12s1.62.95,2.29,1.58,1.22,1.39,1.62,2.28c.41.89.61,1.97.61,3.22,0,1.53-.28,2.94-.84,4.23s-1.39,2.4-2.49,3.34c-1.1.93-2.46,1.66-4.08,2.18s-3.48.77-5.59.77c-1.05,0-2.11-.1-3.16-.3s-2.07-.47-3.06-.8-1.89-.74-2.73-1.21c-.83-.47-1.55-.97-2.15-1.5l2.15-3.4c.26-.4.57-.71.92-.94.36-.23.82-.34,1.4-.34.54,0,1.02.12,1.45.36s.89.5,1.39.77c.5.28,1.08.54,1.74.77.67.24,1.51.36,2.52.36.72,0,1.32-.07,1.82-.22s.89-.35,1.19-.61c.3-.26.52-.55.66-.86.14-.32.21-.65.21-.98,0-.62-.21-1.12-.63-1.52-.42-.4-.96-.74-1.64-1.03s-1.45-.56-2.31-.8c-.86-.25-1.74-.53-2.64-.85s-1.77-.7-2.64-1.15c-.86-.45-1.63-1.01-2.31-1.7s-1.22-1.52-1.64-2.52c-.42-.99-.63-2.19-.63-3.61,0-1.31.25-2.56.76-3.74.51-1.18,1.27-2.22,2.28-3.11s2.29-1.6,3.81-2.13c1.53-.53,3.32-.79,5.36-.79,1.11,0,2.19.1,3.23.3s2.02.48,2.94.83c.91.36,1.75.78,2.5,1.27s1.42,1.02,2,1.59l-2.09,3.25h.07Z"/><path class="cls-11" d="M.03,175.68v-59.59h21.92c4.12,0,7.62.38,10.51,1.15,2.89.76,5.25,1.84,7.08,3.23,1.83,1.39,3.16,3.08,3.99,5.07s1.25,4.21,1.25,6.67c0,1.34-.19,2.62-.57,3.86s-.98,2.41-1.8,3.5-1.87,2.08-3.15,2.97c-1.28.89-2.82,1.66-4.62,2.31,3.93.95,6.83,2.5,8.71,4.64s2.82,4.89,2.82,8.24c0,2.54-.49,4.89-1.47,7.08-.98,2.18-2.42,4.08-4.31,5.7-1.9,1.62-4.23,2.89-7.01,3.8-2.78.91-5.96,1.37-9.53,1.37H.03ZM13.85,141.16h7.2c1.53,0,2.9-.11,4.13-.33,1.23-.22,2.27-.6,3.13-1.14.86-.55,1.51-1.29,1.96-2.25s.67-2.15.67-3.6-.18-2.6-.53-3.54c-.35-.94-.9-1.7-1.64-2.27-.74-.57-1.67-.98-2.8-1.23s-2.47-.37-4.03-.37h-8.1v14.72h0ZM13.85,150.41v14.85h9.73c1.83,0,3.32-.23,4.48-.7,1.16-.46,2.07-1.06,2.72-1.8s1.1-1.57,1.35-2.49c.25-.93.37-1.87.37-2.82,0-1.09-.14-2.07-.43-2.94s-.78-1.61-1.47-2.21c-.69-.6-1.61-1.06-2.76-1.39-1.14-.33-2.59-.49-4.33-.49h-9.66Z"/><path class="cls-11" d="M65.55,133.27v26.91c0,2.1.48,3.72,1.43,4.87.95,1.14,2.36,1.72,4.21,1.72,1.39,0,2.69-.29,3.91-.86,1.21-.57,2.39-1.38,3.54-2.41v-30.22h12.68v42.41h-7.85c-1.58,0-2.62-.71-3.11-2.13l-.78-2.45c-.82.79-1.66,1.51-2.54,2.15-.87.64-1.81,1.19-2.8,1.64-1,.45-2.06.8-3.21,1.06-1.14.26-2.4.39-3.76.39-2.32,0-4.37-.4-6.15-1.21s-3.29-1.93-4.52-3.37-2.15-3.15-2.78-5.11c-.63-1.96-.94-4.12-.94-6.46v-26.91h12.68v-.02Z"/><path class="cls-11" d="M127.05,142.55c-.33.52-.67.89-1.04,1.1-.37.22-.84.33-1.41.33s-1.2-.13-1.8-.39c-.6-.26-1.25-.54-1.94-.84-.7-.3-1.48-.58-2.35-.84-.87-.26-1.87-.39-2.99-.39-1.61,0-2.84.31-3.7.92s-1.29,1.47-1.29,2.56c0,.79.28,1.45.84,1.96.56.52,1.3.97,2.23,1.37s1.98.77,3.15,1.12c1.17.35,2.37.75,3.6,1.19,1.23.44,2.43.95,3.6,1.53,1.17.59,2.22,1.31,3.15,2.17s1.67,1.9,2.23,3.13c.56,1.23.84,2.7.84,4.42,0,2.1-.38,4.04-1.14,5.81s-1.9,3.3-3.42,4.58c-1.51,1.28-3.38,2.28-5.6,2.99s-4.78,1.06-7.67,1.06c-1.45,0-2.89-.14-4.33-.41-1.45-.27-2.84-.64-4.19-1.1s-2.6-1.02-3.74-1.66-2.13-1.33-2.94-2.06l2.94-4.66c.35-.55.78-.97,1.27-1.29.49-.31,1.13-.47,1.92-.47.74,0,1.4.16,1.98.49s1.22.68,1.9,1.06,1.48.74,2.39,1.06c.91.33,2.06.49,3.46.49.98,0,1.81-.1,2.49-.31.68-.2,1.23-.48,1.64-.84.41-.35.71-.75.9-1.19s.29-.89.29-1.35c0-.84-.29-1.54-.86-2.09s-1.32-1.02-2.25-1.41c-.93-.4-1.98-.76-3.17-1.1s-2.39-.73-3.62-1.17-2.43-.96-3.62-1.57-2.24-1.39-3.17-2.33-1.68-2.09-2.25-3.46c-.57-1.36-.86-3.01-.86-4.95,0-1.8.35-3.51,1.04-5.13.7-1.62,1.74-3.05,3.13-4.27s3.13-2.2,5.23-2.92c2.1-.72,4.55-1.08,7.36-1.08,1.53,0,3.01.14,4.44.41s2.77.65,4.03,1.14c1.25.49,2.4,1.07,3.44,1.74,1.04.67,1.95,1.4,2.74,2.19l-2.86,4.46h-.02Z"/><rect class="cls-11" x="137.52" y="133.27" width="12.68" height="42.41"/><rect class="cls-15" x="137.52" y="116.09" width="12.68" height="10.35"/><path class="cls-11" d="M160.42,175.68v-42.41h7.85c.79,0,1.45.18,1.98.53s.91.89,1.12,1.59l.74,2.45c.82-.76,1.66-1.47,2.54-2.13.87-.65,1.81-1.21,2.8-1.66s2.07-.8,3.23-1.06c1.16-.26,2.42-.39,3.78-.39,2.32,0,4.37.4,6.16,1.21,1.79.8,3.29,1.92,4.52,3.35,1.23,1.43,2.15,3.14,2.78,5.11.63,1.98.94,4.12.94,6.44v26.95h-12.68v-26.95c0-2.07-.48-3.69-1.43-4.85-.96-1.16-2.36-1.74-4.21-1.74-1.39,0-2.7.3-3.93.9-1.23.6-2.4,1.4-3.52,2.41v30.22h-12.68v.03Z"/><path class="cls-11" d="M226.02,132.62c2.81,0,5.38.44,7.71,1.31s4.33,2.14,6.01,3.8,2.99,3.7,3.93,6.11c.94,2.41,1.41,5.15,1.41,8.2,0,.95-.04,1.73-.12,2.33s-.23,1.08-.45,1.43c-.22.35-.51.6-.88.74-.37.14-.84.2-1.41.2h-24.46c.41,3.54,1.49,6.11,3.23,7.71,1.74,1.59,3.99,2.39,6.75,2.39,1.47,0,2.74-.18,3.8-.53s2.01-.75,2.84-1.19,1.6-.83,2.29-1.19c.69-.35,1.42-.53,2.19-.53,1.01,0,1.77.37,2.29,1.1l3.68,4.54c-1.31,1.5-2.72,2.72-4.23,3.66s-3.07,1.68-4.66,2.21c-1.59.53-3.19.9-4.78,1.1-1.59.2-3.12.31-4.56.31-2.97,0-5.76-.48-8.36-1.45s-4.88-2.41-6.83-4.31c-1.95-1.91-3.49-4.28-4.62-7.12-1.13-2.84-1.7-6.13-1.7-9.9,0-2.84.48-5.52,1.45-8.06s2.36-4.76,4.17-6.67,4.01-3.42,6.58-4.54c2.58-1.12,5.49-1.68,8.73-1.68v.03ZM226.26,141.37c-2.43,0-4.32.69-5.68,2.07-1.36,1.38-2.26,3.36-2.7,5.95h15.83c0-1.01-.13-1.99-.39-2.95-.26-.95-.68-1.81-1.27-2.56-.59-.75-1.36-1.36-2.31-1.82s-2.11-.7-3.48-.7h0Z"/><path class="cls-11" d="M278.28,142.55c-.33.52-.67.89-1.04,1.1-.37.22-.84.33-1.41.33s-1.2-.13-1.8-.39c-.6-.26-1.25-.54-1.94-.84s-1.48-.58-2.35-.84-1.87-.39-2.99-.39c-1.61,0-2.84.31-3.7.92-.86.61-1.29,1.47-1.29,2.56,0,.79.28,1.45.84,1.96.56.52,1.3.97,2.23,1.37.93.4,1.98.77,3.15,1.12,1.17.35,2.37.75,3.6,1.19s2.43.95,3.6,1.53,2.22,1.31,3.15,2.17,1.67,1.9,2.23,3.13c.56,1.23.84,2.7.84,4.42,0,2.1-.38,4.04-1.15,5.81-.76,1.77-1.9,3.3-3.41,4.58s-3.38,2.28-5.6,2.99-4.78,1.06-7.67,1.06c-1.44,0-2.89-.14-4.33-.41-1.45-.27-2.84-.64-4.19-1.1s-2.6-1.02-3.74-1.66-2.13-1.33-2.94-2.06l2.94-4.66c.35-.55.78-.97,1.27-1.29.49-.31,1.13-.47,1.92-.47.74,0,1.4.16,1.98.49.58.33,1.22.68,1.9,1.06s1.48.74,2.39,1.06c.91.33,2.07.49,3.46.49.98,0,1.81-.1,2.49-.31.68-.2,1.23-.48,1.64-.84.41-.35.71-.75.9-1.19s.29-.89.29-1.35c0-.84-.29-1.54-.86-2.09-.57-.55-1.32-1.02-2.25-1.41-.93-.4-1.98-.76-3.17-1.1-1.19-.34-2.39-.73-3.62-1.17s-2.43-.96-3.62-1.57-2.24-1.39-3.17-2.33-1.68-2.09-2.25-3.46c-.57-1.36-.86-3.01-.86-4.95,0-1.8.35-3.51,1.04-5.13.69-1.62,1.74-3.05,3.13-4.27,1.39-1.23,3.14-2.2,5.24-2.92s4.55-1.08,7.36-1.08c1.53,0,3.01.14,4.44.41s2.77.65,4.03,1.14c1.25.49,2.4,1.07,3.43,1.74,1.04.67,1.95,1.4,2.74,2.19l-2.86,4.46h-.02Z"/><path class="cls-11" d="M314.27,142.55c-.33.52-.67.89-1.04,1.1-.37.22-.84.33-1.41.33s-1.2-.13-1.8-.39c-.6-.26-1.25-.54-1.94-.84s-1.48-.58-2.35-.84-1.87-.39-2.99-.39c-1.61,0-2.84.31-3.7.92-.86.61-1.29,1.47-1.29,2.56,0,.79.28,1.45.84,1.96.56.52,1.3.97,2.23,1.37.93.4,1.98.77,3.15,1.12,1.17.35,2.37.75,3.6,1.19s2.43.95,3.6,1.53,2.22,1.31,3.15,2.17,1.67,1.9,2.23,3.13c.56,1.23.84,2.7.84,4.42,0,2.1-.38,4.04-1.15,5.81-.76,1.77-1.9,3.3-3.41,4.58s-3.38,2.28-5.6,2.99-4.78,1.06-7.67,1.06c-1.44,0-2.89-.14-4.33-.41-1.45-.27-2.84-.64-4.19-1.1s-2.6-1.02-3.74-1.66c-1.14-.64-2.13-1.33-2.94-2.06l2.94-4.66c.35-.55.78-.97,1.27-1.29.49-.31,1.13-.47,1.92-.47.74,0,1.4.16,1.98.49s1.22.68,1.9,1.06,1.48.74,2.39,1.06c.91.33,2.07.49,3.46.49.98,0,1.81-.1,2.49-.31.68-.2,1.23-.48,1.64-.84.41-.35.71-.75.9-1.19s.29-.89.29-1.35c0-.84-.29-1.54-.86-2.09-.57-.55-1.32-1.02-2.25-1.41-.93-.4-1.98-.76-3.17-1.1-1.19-.34-2.39-.73-3.62-1.17s-2.43-.96-3.62-1.57-2.24-1.39-3.17-2.33c-.93-.94-1.68-2.09-2.25-3.46-.57-1.36-.86-3.01-.86-4.95,0-1.8.35-3.51,1.04-5.13.69-1.62,1.74-3.05,3.13-4.27,1.39-1.23,3.14-2.2,5.24-2.92,2.1-.72,4.55-1.08,7.36-1.08,1.53,0,3.01.14,4.44.41s2.77.65,4.03,1.14c1.25.49,2.4,1.07,3.43,1.74,1.04.67,1.95,1.4,2.74,2.19l-2.86,4.46h-.02Z"/><polygon class="cls-13" points="379.8 260.01 379.78 260.51 378.43 260.67 378.42 261.31 379.63 261.18 379.5 261.69 378.33 261.83 378.33 262.55 379.69 262.41 379.67 262.91 377.67 263.12 377.87 260.21 379.8 260.01"/><path class="cls-13" d="M388.71,260.22l.53-1.2.71-.05c-.5.94-1.1,1.84-.99,2.95l-.57.06c-.07-.06.07-.91.03-1.11-.05-.25-.97-1.62-.9-1.68l.65-.04.54,1.06h0Z"/><polygon class="cls-13" points="387.44 259.2 387.42 259.7 386.64 259.8 386.45 262.19 385.89 262.26 386 259.86 385.21 259.94 385.23 259.44 387.44 259.2"/><polygon class="cls-13" points="383.17 262.54 383.38 259.64 384.01 259.57 383.84 261.97 385.19 261.82 385.17 262.33 383.17 262.54"/><path class="cls-13" d="M376.68,261.87c-.05.12.16.37.18.51.02.16-.06.32-.02.5.04.13.19.16.18.31l-.71.08c-.06-.87.01-1.2-1-.98l-.16,1.09-.56.07.21-2.9c.76-.09,2.24-.46,2.23.72,0,.47-.3.48-.36.6h0ZM376.34,261.59c.1-.12.09-.49-.04-.59-.19-.16-.69-.02-.94,0l-.06.8c.24-.06.9-.01,1.05-.2h0Z"/><path class="cls-4" d="M376.34,261.59c-.15.18-.8.14-1.05.2l.06-.8c.24-.01.75-.15.94,0,.13.11.14.47.04.59h0Z"/><path class="cls-4" d="M387.78,264.44c.14.56.29,1.1-.41,1.27-1.35.31-2.18-.38-3.35-.29-.82.06-.68.44-.94.93-.34.63-.67.81-.95,1.65-.12.36.02.68-.51.77-1.47.26-3.05-2.08-4.2-2.38-.7-.19-1.28.58-1.89.32-.46-.2-1.2-1.05-1.63-1.38-1.08-.82-1.95-.1-3.1.05-.6.08-1.57.06-2.11-.23-.42-.22-.91-.78-1.42-.83-1.59-.15-2.86,1.11-4.22-.51-.15-.18-.28-.54-.34-.59-.11-.11-.93-.29-1.02-.36s-.12-.32-.19-.45c-.64-1.05-1.52-1.21-2.32-1.98-3.54-3.46-2.19-8.78-2.48-13.17-.08-1.22-.57-2.46-.37-3.7.13-.79.66-1.07,1.4-1.22,6.24-.69,12.49-1.27,18.73-1.97,1.55-.17,3.48-.68,5.01-.39.94.18,2.18.84,3.13.51.39-.14.75-.6,1.26-.68.72-.12,1.12.58,1.65.87.36.2,1.01.23,1.15.68.08.28.07,1.1.23,1.29.02.02.44.16.49.16.29.03.61-.08.91-.07.91,0,2.32.9,1.84,1.93-.24.5-.76.42-1.08.69-.5.41-.33,1.52-.36,2.09.78-.08,1.22-.92,1.9-1.18.15-.06.43-.05.49-.1.02-.02.12-.38.21-.52.32-.49.85-.64,1.4-.73-.08-1.2,1.61-2.14,2.62-2.36.95-.21,2.43-.03,2.94-1.09.36-.76.29-1.53.96-2.29.46-.52.82-.24,1.42-.22.36,0,.87-.24,1.12.15.22.33.08.77.21,1.03.05.11.24.11.32.25.27.44.21,2.06.07,2.57-.23.85-1.53.69-1.97,1.54-.15.29-.05.82.22.96.29.15,1.05-.18,1.35.28-.71.37-1.48,1.78-2.23,1.96-.15.03-.32-.1-.41.06-.11.49.04,1.28-.42,1.62-.12.09-.39.14-.43.25-.13.31-.12,1.17-.21,1.57-.21.92-.88,1.46-1.58,2.06-.16.14-.4.22-.53.35-.66.66.14,1.79.2,2.57.11,1.43-2.68,3.8-3.49,4.95-.65.92-.63,1.23-.08,2.2.8,1.41,1.21,1.41,1.2,3.28,0,.5.08,1.08-.38,1.39-.5.34-.83.43-1.31.05-1.1-.87-1.63-4.16-3.31-3.98l-3.18.34v.03ZM379.96,245.12c-.35-2.24-3.22-2.38-4.82-1.38-1.19.74-1.23,2.48.03,3.14.67.35,1.66.51,2.27.82,1.39.72-1.39,1.54-1.37.28l-2.21.23c.01,2.73,4.99,2.42,5.93.65.77-1.44-.42-2.5-1.7-2.93-.13-.04-.28,0-.41-.06-.29-.1-.94-.25-1.17-.39-.07-.04-.1-.1-.12-.18.01-.54.7-.69,1.11-.51.14.06.28.44.43.54l2.04-.22h0ZM360.95,245.04l-2.07.22,1.14,6.67,2.07-.22.82-3.55.54,3.41,2-.21,2.01-7-2.21.23-.82,3.84-.39-3.71-1.79.19-.92,3.63-.37-3.5h-.01ZM373.45,243.72l-5.43.57-.29,6.82,5.57-.59.04-1.66-3.29.35-.03-1.01,2.79-.29.12-1.6-2.79.29.1-.88,3.02-.32.19-1.67h0ZM386.46,242.34l-6.07.64-.03,1.74,1.86-.2-.19,5.07,2.29-.24.2-5.07,1.77-.2.18-1.74h0ZM383.3,253.43c-.34-1.99-2.61-2.28-4.22-1.68-1.36.5-2.06,2-1,3.17.42.47,1.98.84,2.66,1.16.25.12.56.25.35.6-.22.38-1.81.47-1.68-.38l-2.29.24c.16.68.29,1.2.92,1.56,1.39.81,3.95.57,4.98-.74.54-.69.36-1.71-.21-2.33-.77-.83-2.12-.73-2.98-1.25-.23-.14-.12-.5.05-.6.6-.32,1.07-.08,1.37.46l2.04-.22h0ZM372.22,252.51l-2.21.23c-.04,1.09-.06,2.18-.11,3.28-.01.28-.11.57-.11.83.04,3.54,6.01,3.1,6.42.1l.3-4.88-2.29.24-.3,4.62c-.13.64-1.16.81-1.63.5-.19-.12-.21-.72-.22-.95-.05-1.27.21-2.67.16-3.95v-.02ZM383.57,258.1l2.18-.23.32-.82,2.13-.24.15.78,2.21-.23-2.18-6.56-2.2.31-2.62,6.99h.01ZM376.68,261.87c.05-.12.35-.13.36-.6,0-1.19-1.47-.81-2.23-.72l-.21,2.9.56-.07.16-1.09c1.01-.22.93.11,1,.98l.71-.08c0-.15-.14-.18-.18-.31-.05-.18.04-.34.02-.5-.02-.15-.24-.4-.18-.51h0ZM379.8,260.01l-1.93.2-.2,2.91,2-.21.02-.51-1.36.14v-.72l1.17-.13.14-.51-1.21.13v-.65l1.36-.15.02-.5h-.01ZM382.67,262.6l-.75-2.74-.75.02-1.21,3c.69.03.64-.15.92-.66.58-.03,1.19-.43,1.15.44l.64-.07h0ZM383.17,262.54l2-.21.02-.51-1.36.14.18-2.4-.64.07-.2,2.91h0ZM387.44,259.2l-2.21.23-.02.51.79-.08-.11,2.39.56-.07.19-2.39.77-.09.03-.5h0ZM388.71,260.22l-.54-1.06-.65.04c-.07.06.84,1.43.9,1.68.05.21-.09,1.06-.03,1.11l.57-.06c-.1-1.11.5-2.01.99-2.95l-.71.05-.53,1.2h0Z"/><path class="cls-13" d="M382.67,262.6l-.64.07c.04-.87-.57-.47-1.15-.44-.27.51-.22.69-.92.66l1.21-3,.75-.02.75,2.74h0ZM381.77,261.61s-.15-.75-.18-.86c-.02-.07-.05-.21-.14-.18l-.39,1.12.71-.07h0Z"/><path class="cls-4" d="M381.77,261.61l-.71.07.39-1.12c.1-.03.12.12.14.18.04.11.21.83.18.86h0Z"/><path class="cls-13" d="M383.57,258.1l2.62-6.99,2.2-.31,2.18,6.56-2.21.23-.15-.78-2.13.24-.32.82-2.18.23h-.01ZM387.84,255.41l-.59-2.18-.77,2.32,1.36-.14h0Z"/><polygon class="cls-4" points="387.84 255.41 386.48 255.55 387.25 253.23 387.84 255.41"/><path class="cls-13" d="M372.22,252.51c.05,1.29-.21,2.68-.16,3.95,0,.23.03.83.22.95.48.31,1.51.14,1.63-.5l.3-4.62,2.29-.24-.3,4.88c-.41,3-6.38,3.44-6.42-.1,0-.25.1-.55.11-.83.05-1.09.07-2.18.11-3.28l2.21-.23v.02Z"/><path class="cls-13" d="M383.3,253.43l-2.04.22c-.29-.54-.77-.78-1.37-.46-.18.09-.28.46-.05.6.85.52,2.2.41,2.98,1.25.57.61.76,1.63.21,2.33-1.03,1.31-3.6,1.55-4.98.74-.63-.37-.76-.88-.92-1.56l2.29-.24c-.13.85,1.46.75,1.68.38.21-.36-.1-.48-.35-.6-.68-.31-2.24-.69-2.66-1.16-1.06-1.17-.36-2.67,1-3.17,1.61-.6,3.89-.31,4.22,1.68h0Z"/><polygon class="cls-13" points="360.95 245.04 361.32 248.53 362.24 244.9 364.02 244.71 364.42 248.42 365.24 244.58 367.45 244.35 365.45 251.35 363.45 251.56 362.91 248.15 362.09 251.7 360.02 251.92 358.88 245.25 360.95 245.04"/><polygon class="cls-13" points="373.45 243.72 373.26 245.39 370.24 245.71 370.15 246.59 372.93 246.3 372.81 247.9 370.03 248.19 370.06 249.2 373.35 248.85 373.31 250.52 367.73 251.11 368.02 244.29 373.45 243.72"/><path class="cls-13" d="M379.96,245.12l-2.04.22c-.16-.09-.29-.47-.43-.54-.41-.19-1.09-.04-1.11.51.02.08.05.14.12.18.23.14.88.29,1.17.39.13.05.28,0,.41.06,1.28.43,2.47,1.49,1.7,2.93-.94,1.77-5.92,2.08-5.93-.65l2.21-.23c-.02,1.26,2.76.45,1.37-.28-.61-.32-1.61-.48-2.27-.82-1.26-.66-1.22-2.4-.03-3.14,1.6-1,4.47-.86,4.82,1.38h0Z"/><polygon class="cls-13" points="386.46 242.34 386.27 244.09 384.5 244.29 384.31 249.36 382.02 249.6 382.21 244.52 380.35 244.72 380.39 242.98 386.46 242.34"/><path class="cls-13" d="M403.29,234.07c1.27.35,2.15,1.4,2.45,2.67l3.22,30.49c.04,1.4-.81,3.01-2.29,3.24l-48.31,5.1c-1.17.09-2.44-.91-2.64-2.07l-3.34-31.63c-.03-1.15.71-1.98,1.61-2.59l49.3-5.21h0ZM387.78,264.44l3.18-.34c1.69-.18,2.21,3.11,3.31,3.98.48.38.81.29,1.31-.05.46-.31.38-.89.38-1.39,0-1.86-.4-1.86-1.2-3.28-.55-.97-.57-1.28.08-2.2.81-1.15,3.6-3.52,3.49-4.95-.06-.78-.86-1.91-.2-2.57.13-.13.37-.22.53-.35.69-.6,1.37-1.14,1.58-2.06.09-.41.09-1.26.21-1.57.04-.11.31-.16.43-.25.45-.34.3-1.13.42-1.62.09-.16.26-.02.41-.06.75-.17,1.52-1.59,2.23-1.96-.3-.47-1.06-.14-1.35-.28-.27-.14-.37-.67-.22-.96.44-.85,1.73-.69,1.97-1.54.14-.52.2-2.14-.07-2.57-.08-.13-.27-.14-.32-.25-.12-.26,0-.7-.21-1.03-.25-.39-.76-.14-1.12-.15-.6-.02-.96-.3-1.42.22-.67.76-.6,1.53-.96,2.29-.5,1.06-1.99.88-2.94,1.09-1.01.22-2.7,1.16-2.62,2.36-.55.09-1.08.24-1.4.73-.09.14-.19.5-.21.52-.06.04-.34.04-.49.1-.67.26-1.11,1.1-1.9,1.18.03-.58-.14-1.68.36-2.09.33-.27.85-.19,1.08-.69.48-1.03-.93-1.92-1.84-1.93-.3,0-.62.1-.91.07-.05,0-.47-.14-.49-.16-.16-.2-.15-1.02-.23-1.29-.13-.45-.79-.48-1.15-.68-.53-.3-.93-.99-1.65-.87-.51.08-.87.55-1.26.68-.94.33-2.19-.33-3.13-.51-1.53-.29-3.46.21-5.01.39-6.24.7-12.49,1.28-18.73,1.97-.74.14-1.27.43-1.4,1.22-.2,1.24.29,2.47.37,3.7.28,4.39-1.06,9.7,2.48,13.17.79.77,1.68.93,2.32,1.98.07.12.11.38.19.45s.9.25,1.02.36c.05.05.19.41.34.59,1.36,1.63,2.63.36,4.22.51.51.05,1,.61,1.42.83.54.28,1.51.3,2.11.23,1.16-.15,2.02-.87,3.1-.05.43.33,1.17,1.17,1.63,1.38.61.27,1.19-.5,1.89-.32,1.15.31,2.73,2.64,4.2,2.38.53-.09.39-.41.51-.77.27-.84.61-1.02.95-1.65.26-.49.12-.87.94-.93,1.17-.09,2,.6,3.35.29.7-.16.56-.7.41-1.27v-.03Z"/><polygon class="cls-9" points="380.37 175.68 380.37 20.64 370.28 20.64 387.84 0 405.45 20.16 395.9 20.16 395.9 175.68 380.37 175.68"/><path class="cls-7" d="M420.27,175.68s-1.55-39.91-.91-59.72c.72-22.14.19-35.16,49.87-66.48l5.28,4.32,6.72-18.72-26.16,3.36,4.32,3.6s-20.12,12.41-34.92,25.8c-15.19,13.74-17.32,28.08-18.02,44.28-.7,16.2-1,63.56-1,63.56h14.82,0Z"/><path class="cls-5" d="M441.77,175.68v-32.24c0-11.52,2.4-32.88,47.76-56.88l6.48,4.56,7.68-18.42-28.1,2.58,4.34,3.36s-51.84,24-52.56,58.08v38.96h14.4Z"/><path class="cls-3" d="M356.27,175.68s1.55-39.91.91-59.72c-.72-22.14-.19-35.16-49.87-66.48l-5.28,4.32-6.72-18.72,26.16,3.36-4.32,3.6s20.12,12.41,34.92,25.8c15.19,13.74,17.32,28.08,18.02,44.28.7,16.2,1,63.56,1,63.56h-14.82,0Z"/><path class="cls-8" d="M334.77,175.68v-32.24c0-11.52-2.4-32.88-47.76-56.88l-6.48,4.56-7.68-18.42,28.1,2.58-4.34,3.36s51.84,24,52.56,58.08v38.96h-14.4Z"/><path class="cls-2" d="M185.68,214.83c1.38-2.01,2.44-4.22,3.18-6.64.75-2.42,1.12-5.02,1.12-7.81h-5.62c-.52,0-.93.15-1.25.46-.32.31-.49.73-.53,1.26-.13,1.34-.35,2.63-.66,3.87-.31,1.24-.72,2.44-1.23,3.58l-10.32-10.89c-.55-.57-1.01-1.11-1.36-1.6-.35-.5-.63-.98-.83-1.45s-.34-.93-.43-1.39-.13-.94-.13-1.43c0-.57.09-1.13.26-1.66s.42-1,.76-1.4c.33-.4.75-.73,1.25-.97.5-.25,1.08-.37,1.75-.37.96,0,1.72.26,2.31.77.58.52,1.09,1.27,1.53,2.26,1.88,5.06-5.1,7.25-5.1,7.25l4.28,4.52c9.53-2.06,9.11-11.03,8.66-12.61-.18-.91-.48-1.8-.89-2.68-.55-1.17-1.32-2.19-2.29-3.08-.97-.89-2.17-1.61-3.58-2.15s-3.05-.82-4.9-.82c-1.97,0-3.71.3-5.23.89-1.52.59-2.8,1.39-3.84,2.39s-1.83,2.17-2.38,3.5c-.54,1.33-.82,2.74-.82,4.23,0,1.26.2,2.56.6,3.9.4,1.34,1.05,2.7,1.95,4.1-1.17.59-2.24,1.29-3.22,2.08-.98.79-1.83,1.67-2.54,2.64-.71.97-1.26,2.01-1.65,3.14s-.59,2.32-.59,3.58c0,1.87.38,3.56,1.15,5.07.76,1.51,1.77,2.79,3.01,3.86,1.24,1.06,2.66,1.88,4.26,2.45,1.6.57,3.22.86,4.89.86,2.43,0,4.72-.34,6.87-1.03s4.13-1.66,5.95-2.92l1.81,1.89c.31.33.59.59.86.8s.55.37.85.49c.3.11.62.2.96.24.34.05.74.07,1.18.07h8.77l-8.77-9.23-.05-.02ZM172.39,217.17c-1.1.33-2.29.5-3.57.5-.88,0-1.68-.15-2.39-.44-.72-.3-1.33-.71-1.85-1.25-.52-.53-.91-1.18-1.19-1.92s-.42-1.58-.42-2.49c0-1.11.22-2.17.66-3.18s1.18-1.95,2.24-2.81l9.6,10.18c-.96.61-1.98,1.08-3.08,1.42h0Z"/></g><g><path class="cls-10" d="M659.98,297.29c0,.31-.13.46-.39.46-.98,0-2.55-.05-4.71-.15-2.16-.1-3.74-.16-4.71-.16-1.29,0-2.81.05-4.56.16-1.75.1-3.12.15-4.1.15-.21,0-.31-.15-.31-.46s.1-.46.31-.46c1.49,0,2.59-.17,3.28-.5.7-.33,1.04-.89,1.04-1.66s-.44-2.09-1.31-3.94l-5.87-11.9h-18.7l-3.71,8.35c-.67,1.55-1.01,2.94-1.01,4.17,0,1.8.64,3.17,1.93,4.1,1.29.93,3.09,1.39,5.41,1.39.26,0,.39.15.39.46s-.13.46-.39.46c-.93,0-2.27-.05-4.02-.15-1.96-.1-3.66-.16-5.1-.16s-3.01.05-4.87.16c-1.65.1-3.01.15-4.1.15-.26,0-.39-.15-.39-.46s.13-.46.39-.46c1.44,0,2.65-.28,3.63-.85.98-.57,1.93-1.58,2.86-3.05s2.03-3.64,3.32-6.53l16.61-37.4c.1-.15.33-.23.7-.23s.57.08.62.23l18.93,38.17c1.8,3.71,3.31,6.25,4.52,7.61,1.21,1.37,2.51,2.05,3.9,2.05.26,0,.39.15.39.46ZM620.81,276.89h16.92l-8.89-18.01-8.04,18.01Z"/><path class="cls-10" d="M685.48,268.32c1.08.77,1.62,1.7,1.62,2.78,0,.98-.3,1.78-.89,2.4-.59.62-1.4.93-2.43.93-.67,0-1.22-.14-1.66-.42-.44-.28-.89-.68-1.35-1.2-.46-.46-.88-.81-1.24-1.04-.36-.23-.8-.35-1.31-.35-.57,0-1.17.22-1.82.66-.65.44-1.64,1.35-2.97,2.74v16.69c0,1.44.2,2.54.62,3.28.41.75,1.11,1.27,2.09,1.58.98.31,2.42.46,4.33.46.21,0,.31.15.31.46s-.1.46-.31.46c-1.7,0-3.07-.03-4.1-.08l-6.1-.08-4.48.08c-.72.05-1.73.08-3.01.08-.15,0-.23-.15-.23-.46s.08-.46.23-.46c1.75,0,2.91-.36,3.48-1.08.57-.72.85-2.14.85-4.25v-14.76c0-1.65-.19-2.86-.58-3.63-.39-.77-1.02-1.16-1.89-1.16-.77,0-2.06.39-3.86,1.16h-.08c-.21,0-.36-.13-.46-.39-.1-.26-.08-.41.08-.46l10.12-4.95c.31-.1.49-.16.54-.16.51,0,1.03.55,1.55,1.66.51,1.11.82,2.56.93,4.37,2.01-2.27,3.68-3.84,5.02-4.71,1.34-.87,2.55-1.31,3.63-1.31,1.18,0,2.32.39,3.4,1.16Z"/><path class="cls-10" d="M691.67,297.29c0-.31.08-.46.23-.46,1.75,0,2.91-.36,3.48-1.08.57-.72.85-2.14.85-4.25v-14.06c0-1.75-.18-3.03-.54-3.83-.36-.8-.98-1.2-1.85-1.2-.77,0-1.78.31-3.01.93h-.08c-.21,0-.36-.13-.46-.39-.1-.26-.08-.44.08-.54l11.13-5.18.23-.08c.21,0,.43.12.66.35.23.23.35.42.35.58v1.62c-.1,2.16-.15,4.71-.15,7.65v14.14c0,2.11.3,3.53.89,4.25.59.72,1.76,1.08,3.52,1.08.15,0,.23.15.23.46s-.08.46-.23.46c-1.29,0-2.32-.03-3.09-.08l-4.48-.08-4.48.08c-.72.05-1.73.08-3.01.08-.16,0-.23-.15-.23-.46ZM695.88,257.96c-.75-.72-1.12-1.75-1.12-3.09s.37-2.28,1.12-2.97c.75-.69,1.79-1.04,3.13-1.04s2.29.35,3.01,1.04c.72.7,1.08,1.69,1.08,2.97s-.35,2.37-1.04,3.09c-.69.72-1.71,1.08-3.05,1.08s-2.38-.36-3.13-1.08Z"/><path class="cls-10" d="M729.53,269.55c.21-.36.08-.54-.39-.54-4.79,0-8.51.61-11.17,1.82-2.65,1.21-4.44,3.21-5.37,5.99,0,.05-.1.08-.31.08-.41,0-.59-.1-.54-.31l3.09-11.44c0-.05.1-.08.31-.08.41,0,.59.1.54.31-.1.41-.16.7-.16.85,0,.67.31,1.12.93,1.35.62.23,1.62.35,3.01.35h17.31c.21,0,.39.1.54.31.15.21.18.41.08.62l-17.85,27.05c-.15.36-.03.54.39.54,3.86,0,6.94-.26,9.23-.77,2.29-.51,4.06-1.38,5.29-2.59,1.24-1.21,2.14-2.9,2.7-5.06.05-.15.22-.23.5-.23s.42.08.42.23l-.15,8.89c0,.21-.08.4-.23.58-.15.18-.34.27-.54.27h-24.81c-.21,0-.37-.1-.5-.31-.13-.2-.14-.41-.04-.62l17.7-27.28Z"/><path class="cls-10" d="M750.32,296.56c-2.37-1.47-4.2-3.45-5.49-5.95-1.29-2.5-1.93-5.22-1.93-8.15,0-3.35.84-6.19,2.51-8.54,1.67-2.34,3.81-4.1,6.41-5.26,2.6-1.16,5.27-1.74,8-1.74,3.14,0,5.89.75,8.23,2.24,2.34,1.49,4.13,3.47,5.37,5.91,1.24,2.45,1.85,5.06,1.85,7.84,0,3.09-.76,5.85-2.28,8.27-1.52,2.42-3.57,4.29-6.14,5.6-2.58,1.31-5.36,1.97-8.35,1.97s-5.82-.73-8.19-2.2ZM766.04,294.2c1.21-2.01,1.82-4.95,1.82-8.81,0-3.45-.48-6.46-1.43-9.04-.95-2.58-2.24-4.53-3.86-5.87-1.62-1.34-3.39-2.01-5.29-2.01-2.32,0-4.07.95-5.25,2.86-1.19,1.91-1.78,4.71-1.78,8.42,0,3.35.45,6.35,1.35,9s2.16,4.73,3.79,6.22c1.62,1.49,3.44,2.24,5.45,2.24,2.27,0,4.01-1,5.22-3.01Z"/><path class="cls-10" d="M817.08,297.29c0,.31-.08.46-.23.46-1.29,0-2.29-.03-3.01-.08l-4.48-.08-4.4.08c-.77.05-1.8.08-3.09.08-.15,0-.23-.15-.23-.46s.08-.46.23-.46c1.75,0,2.91-.36,3.48-1.08.57-.72.85-2.14.85-4.25v-11.59c0-2.88-.53-5.01-1.58-6.38-1.06-1.36-2.72-2.05-4.98-2.05-1.34,0-2.7.31-4.1.93s-2.65,1.44-3.79,2.47v16.61c0,2.11.28,3.53.85,4.25.57.72,1.73,1.08,3.48,1.08.15,0,.23.15.23.46s-.08.46-.23.46c-1.29,0-2.29-.03-3.01-.08l-4.48-.08-4.48.08c-.72.05-1.73.08-3.01.08-.15,0-.23-.15-.23-.46s.08-.46.23-.46c1.75,0,2.91-.36,3.48-1.08.57-.72.85-2.14.85-4.25v-14.76c0-1.65-.19-2.86-.58-3.63-.39-.77-1.02-1.16-1.89-1.16-.77,0-2.06.39-3.86,1.16h-.08c-.21,0-.36-.13-.46-.39-.1-.26-.08-.41.08-.46l10.12-4.95c.31-.1.49-.16.54-.16.51,0,1.04.58,1.58,1.74.54,1.16.84,2.67.89,4.52,3.61-4.28,7.52-6.41,11.75-6.41,2.83,0,5.05.86,6.64,2.59,1.6,1.73,2.4,4.06,2.4,6.99v14.91c0,2.11.28,3.53.85,4.25.57.72,1.73,1.08,3.48,1.08.15,0,.23.15.23.46Z"/><path class="cls-10" d="M850.62,293.58c.21,0,.34.12.39.35.05.23-.03.4-.23.5l-7.96,3.79c-.21.1-.44.15-.69.15-.77,0-1.51-.45-2.2-1.35-.69-.9-1.15-2.1-1.35-3.59l-3.55,2.47c-1.24.88-2.36,1.49-3.36,1.85s-2.12.54-3.36.54c-2.11,0-3.72-.5-4.83-1.51-1.11-1-1.66-2.33-1.66-3.98,0-1.39.37-2.52,1.12-3.4.75-.88,1.7-1.58,2.86-2.13,1.16-.54,2.87-1.22,5.14-2.05l7.5-2.78v-4.64c0-3.19-.32-5.53-.97-6.99-.64-1.47-1.66-2.2-3.05-2.2-1.7,0-2.92.63-3.67,1.89-.75,1.26-1.2,2.67-1.35,4.21-.31,2.63-1.62,3.94-3.94,3.94-1.13,0-1.97-.26-2.51-.77-.54-.51-.81-1.16-.81-1.93,0-1.44.86-2.85,2.59-4.21,1.72-1.36,3.81-2.47,6.26-3.32s4.6-1.28,6.45-1.28c2.21,0,3.98.7,5.29,2.09s1.97,3.48,1.97,6.26v13.91c0,1.6.26,2.81.77,3.63.51.82,1.26,1.24,2.24,1.24.77,0,1.7-.23,2.78-.69h.15ZM838.41,292.19v-8.42l-4.64,1.93c-1.34.52-2.43,1.12-3.28,1.82-.85.69-1.27,1.69-1.27,2.97s.4,2.23,1.2,2.97c.8.75,1.76,1.12,2.9,1.12.93,0,1.91-.31,2.94-.93l2.16-1.47Z"/><path class="cls-10" d="M906.1,274.88c2.52,2.37,3.79,5.31,3.79,8.81,0,2.68-.73,5.11-2.2,7.3-1.47,2.19-3.5,3.92-6.1,5.18-2.6,1.26-5.5,1.89-8.69,1.89-1.49,0-3.22-.08-5.18-.23-.67-.05-1.52-.1-2.55-.15-1.03-.05-2.19-.08-3.48-.08l-5.56.08c-.98.05-2.32.08-4.02.08-.15,0-.23-.15-.23-.46s.08-.46.23-.46c1.65,0,2.88-.14,3.71-.42.82-.28,1.4-.79,1.74-1.51.33-.72.5-1.85.5-3.4v-35.78c0-1.49-.17-2.61-.5-3.36-.34-.75-.9-1.26-1.7-1.55-.8-.28-2.02-.43-3.67-.43-.1,0-.15-.15-.15-.46s.05-.46.15-.46l4.02.08c2.27.1,4.1.16,5.49.16s2.96-.08,4.56-.23c.57-.05,1.25-.1,2.05-.15.8-.05,1.71-.08,2.74-.08,4.58,0,8.09.88,10.51,2.63,2.42,1.75,3.63,4.22,3.63,7.42,0,2.47-.8,4.7-2.4,6.68-1.6,1.98-3.86,3.54-6.8,4.68,4.22.46,7.6,1.88,10.12,4.25ZM886.36,251.78c-.59.67-.89,2.04-.89,4.1v14.68l3.25.08c3.04,0,5.33-.99,6.88-2.97,1.55-1.98,2.32-4.55,2.32-7.69,0-2.94-.69-5.2-2.09-6.8-1.39-1.6-3.43-2.4-6.11-2.4-1.65,0-2.77.34-3.36,1ZM902.08,285.55c0-3.91-1.02-7.06-3.05-9.43-2.04-2.37-5.01-3.55-8.92-3.55-1.85,0-3.4.05-4.64.16v18.78c0,1.19.15,2.11.46,2.78.31.67.9,1.17,1.78,1.51.87.34,2.19.5,3.94.5,6.96,0,10.43-3.58,10.43-10.74Z"/><path class="cls-10" d="M952.16,292.89c.15,0,.28.13.39.39.1.26.08.44-.08.54l-10.12,4.87-.31.08c-.52,0-.98-.58-1.39-1.74-.41-1.16-.64-2.72-.69-4.68-3.61,4.17-7.42,6.26-11.44,6.26-2.78,0-4.95-.86-6.49-2.59s-2.32-4.08-2.32-7.07v-11.51c0-3.5-.8-5.26-2.4-5.26-.52,0-1.24.21-2.16.62h-.08c-.21,0-.36-.13-.46-.39-.1-.26-.08-.44.08-.54l9.81-4.56.31-.08c.21,0,.44.1.7.31.26.21.39.39.39.54v17.54c0,2.89.53,5.04,1.58,6.45,1.06,1.42,2.67,2.12,4.83,2.12,1.29,0,2.61-.31,3.98-.93,1.36-.62,2.59-1.47,3.67-2.55v-13.29c0-1.8-.19-3.13-.58-3.98s-.99-1.28-1.82-1.28c-.46,0-1.19.21-2.16.62h-.08c-.21,0-.36-.14-.46-.43-.1-.28-.05-.45.16-.5l9.74-4.56c.1-.05.23-.08.39-.08.21,0,.44.1.7.31.26.21.39.39.39.54v20.94c0,1.8.18,3.07.54,3.79.36.72.95,1.08,1.78,1.08.62,0,1.78-.31,3.48-.93l.16-.08Z"/><path class="cls-10" d="M962.93,275.97c1.11,1.08,2.72,2.22,4.83,3.4,1.86,1.03,3.28,1.88,4.29,2.55,1.01.67,1.88,1.57,2.63,2.7.75,1.13,1.12,2.5,1.12,4.1,0,1.75-.44,3.37-1.31,4.87-.88,1.49-2.18,2.7-3.9,3.63s-3.77,1.39-6.14,1.39c-2.83,0-5.44-.72-7.8-2.16-.31-.31-.46-.62-.46-.93l-.15-7.11c0-.15.14-.24.42-.27.28-.02.45.01.5.12.87,2.58,2.2,4.69,3.98,6.34,1.78,1.65,3.67,2.47,5.68,2.47,1.29,0,2.29-.33,3.01-1,.72-.67,1.08-1.67,1.08-3.01,0-1.96-.57-3.52-1.7-4.68-1.13-1.16-2.78-2.3-4.95-3.44-1.75-.93-3.12-1.71-4.1-2.36-.98-.64-1.82-1.52-2.51-2.63-.69-1.11-1.04-2.48-1.04-4.13,0-2.94,1.07-5.12,3.21-6.57,2.14-1.44,4.73-2.16,7.77-2.16,2.01,0,4.07.39,6.18,1.16.46.21.7.49.7.85,0,1.19-.03,2.11-.08,2.78l-.08,3.71c0,.15-.15.23-.46.23s-.46-.08-.46-.23c0-1.03-.41-2.1-1.24-3.21-.83-1.11-1.88-2.02-3.17-2.74-1.29-.72-2.6-1.08-3.94-1.08-2.37,0-3.55,1.13-3.55,3.4,0,1.6.55,2.94,1.66,4.02Z"/><path class="cls-10" d="M981.83,297.29c0-.31.08-.46.23-.46,1.75,0,2.91-.36,3.48-1.08.57-.72.85-2.14.85-4.25v-14.06c0-1.75-.18-3.03-.54-3.83-.36-.8-.98-1.2-1.85-1.2-.77,0-1.78.31-3.01.93h-.08c-.21,0-.36-.13-.46-.39-.1-.26-.08-.44.08-.54l11.13-5.18.23-.08c.21,0,.43.12.66.35.23.23.35.42.35.58v1.62c-.1,2.16-.15,4.71-.15,7.65v14.14c0,2.11.3,3.53.89,4.25.59.72,1.76,1.08,3.52,1.08.15,0,.23.15.23.46s-.08.46-.23.46c-1.29,0-2.32-.03-3.09-.08l-4.48-.08-4.48.08c-.72.05-1.73.08-3.01.08-.16,0-.23-.15-.23-.46ZM986.04,257.96c-.75-.72-1.12-1.75-1.12-3.09s.37-2.28,1.12-2.97c.75-.69,1.79-1.04,3.13-1.04s2.29.35,3.01,1.04c.72.7,1.08,1.69,1.08,2.97s-.35,2.37-1.04,3.09c-.69.72-1.71,1.08-3.05,1.08s-2.38-.36-3.13-1.08Z"/><path class="cls-10" d="M1038.39,297.29c0,.31-.08.46-.23.46-1.29,0-2.29-.03-3.01-.08l-4.48-.08-4.4.08c-.77.05-1.8.08-3.09.08-.15,0-.23-.15-.23-.46s.08-.46.23-.46c1.75,0,2.91-.36,3.48-1.08.57-.72.85-2.14.85-4.25v-11.59c0-2.88-.53-5.01-1.58-6.38-1.06-1.36-2.72-2.05-4.98-2.05-1.34,0-2.7.31-4.1.93s-2.65,1.44-3.79,2.47v16.61c0,2.11.28,3.53.85,4.25.57.72,1.73,1.08,3.48,1.08.15,0,.23.15.23.46s-.08.46-.23.46c-1.29,0-2.29-.03-3.01-.08l-4.48-.08-4.48.08c-.72.05-1.73.08-3.01.08-.15,0-.23-.15-.23-.46s.08-.46.23-.46c1.75,0,2.91-.36,3.48-1.08.57-.72.85-2.14.85-4.25v-14.76c0-1.65-.19-2.86-.58-3.63-.39-.77-1.02-1.16-1.89-1.16-.77,0-2.06.39-3.86,1.16h-.08c-.21,0-.36-.13-.46-.39-.1-.26-.08-.41.08-.46l10.12-4.95c.31-.1.49-.16.54-.16.51,0,1.04.58,1.58,1.74.54,1.16.84,2.67.89,4.52,3.61-4.28,7.52-6.41,11.75-6.41,2.83,0,5.05.86,6.64,2.59,1.6,1.73,2.4,4.06,2.4,6.99v14.91c0,2.11.28,3.53.85,4.25.57.72,1.73,1.08,3.48,1.08.15,0,.23.15.23.46Z"/><path class="cls-10" d="M1068.92,292.89c.1,0,.22.1.35.31.13.21.14.36.04.46-1.91,1.75-3.81,3.03-5.72,3.83-1.91.8-3.97,1.2-6.18,1.2-3.14,0-5.86-.69-8.15-2.09-2.29-1.39-4.05-3.22-5.26-5.49-1.21-2.27-1.82-4.71-1.82-7.34,0-3.04.75-5.82,2.24-8.35,1.49-2.52,3.54-4.52,6.14-5.99,2.6-1.47,5.5-2.2,8.69-2.2s5.49.75,7.19,2.24c1.7,1.5,2.55,3.71,2.55,6.65,0,1.49-.31,2.24-.93,2.24l-18.86.08c-.05.46-.08,1.16-.08,2.09,0,4.53,1.04,8.13,3.13,10.78,2.09,2.65,5.06,3.98,8.93,3.98,1.44,0,2.65-.17,3.63-.5.98-.33,2.29-.94,3.94-1.82l.16-.08ZM1051.8,270.98c-1.21,1.47-2.02,3.49-2.43,6.07l12.36-.23c-.1-5.36-1.85-8.04-5.26-8.04-1.91,0-3.47.73-4.68,2.2Z"/><path class="cls-10" d="M1082.01,275.97c1.11,1.08,2.72,2.22,4.83,3.4,1.86,1.03,3.28,1.88,4.29,2.55,1.01.67,1.88,1.57,2.63,2.7.75,1.13,1.12,2.5,1.12,4.1,0,1.75-.44,3.37-1.31,4.87-.88,1.49-2.18,2.7-3.9,3.63s-3.77,1.39-6.14,1.39c-2.83,0-5.44-.72-7.8-2.16-.31-.31-.46-.62-.46-.93l-.15-7.11c0-.15.14-.24.42-.27.28-.02.45.01.5.12.87,2.58,2.2,4.69,3.98,6.34,1.78,1.65,3.67,2.47,5.68,2.47,1.29,0,2.29-.33,3.01-1,.72-.67,1.08-1.67,1.08-3.01,0-1.96-.57-3.52-1.7-4.68-1.13-1.16-2.78-2.3-4.95-3.44-1.75-.93-3.12-1.71-4.1-2.36-.98-.64-1.82-1.52-2.51-2.63-.69-1.11-1.04-2.48-1.04-4.13,0-2.94,1.07-5.12,3.21-6.57,2.14-1.44,4.73-2.16,7.77-2.16,2.01,0,4.07.39,6.18,1.16.46.21.7.49.7.85,0,1.19-.03,2.11-.08,2.78l-.08,3.71c0,.15-.15.23-.46.23s-.46-.08-.46-.23c0-1.03-.41-2.1-1.24-3.21-.83-1.11-1.88-2.02-3.17-2.74-1.29-.72-2.6-1.08-3.94-1.08-2.37,0-3.55,1.13-3.55,3.4,0,1.6.55,2.94,1.66,4.02Z"/><path class="cls-10" d="M1107.59,275.97c1.11,1.08,2.72,2.22,4.83,3.4,1.86,1.03,3.28,1.88,4.29,2.55,1.01.67,1.88,1.57,2.63,2.7.75,1.13,1.12,2.5,1.12,4.1,0,1.75-.44,3.37-1.31,4.87-.88,1.49-2.18,2.7-3.9,3.63s-3.77,1.39-6.14,1.39c-2.83,0-5.44-.72-7.8-2.16-.31-.31-.46-.62-.46-.93l-.15-7.11c0-.15.14-.24.42-.27.28-.02.45.01.5.12.87,2.58,2.2,4.69,3.98,6.34,1.78,1.65,3.67,2.47,5.68,2.47,1.29,0,2.29-.33,3.01-1,.72-.67,1.08-1.67,1.08-3.01,0-1.96-.57-3.52-1.7-4.68-1.13-1.16-2.78-2.3-4.95-3.44-1.75-.93-3.12-1.71-4.1-2.36-.98-.64-1.82-1.52-2.51-2.63-.69-1.11-1.04-2.48-1.04-4.13,0-2.94,1.07-5.12,3.21-6.57,2.14-1.44,4.73-2.16,7.77-2.16,2.01,0,4.07.39,6.18,1.16.46.21.7.49.7.85,0,1.19-.03,2.11-.08,2.78l-.08,3.71c0,.15-.15.23-.46.23s-.46-.08-.46-.23c0-1.03-.41-2.1-1.24-3.21-.83-1.11-1.88-2.02-3.17-2.74-1.29-.72-2.6-1.08-3.94-1.08-2.37,0-3.55,1.13-3.55,3.4,0,1.6.55,2.94,1.66,4.02Z"/><path class="cls-10" d="M1178.64,274.88c2.52,2.37,3.79,5.31,3.79,8.81,0,2.68-.73,5.11-2.2,7.3-1.47,2.19-3.5,3.92-6.1,5.18-2.6,1.26-5.5,1.89-8.69,1.89-1.49,0-3.22-.08-5.18-.23-.67-.05-1.52-.1-2.55-.15-1.03-.05-2.19-.08-3.48-.08l-5.56.08c-.98.05-2.32.08-4.02.08-.15,0-.23-.15-.23-.46s.08-.46.23-.46c1.65,0,2.88-.14,3.71-.42.82-.28,1.4-.79,1.74-1.51.33-.72.5-1.85.5-3.4v-35.78c0-1.49-.17-2.61-.5-3.36-.34-.75-.9-1.26-1.7-1.55-.8-.28-2.02-.43-3.67-.43-.1,0-.15-.15-.15-.46s.05-.46.15-.46l4.02.08c2.27.1,4.1.16,5.49.16s2.96-.08,4.56-.23c.57-.05,1.25-.1,2.05-.15.8-.05,1.71-.08,2.74-.08,4.58,0,8.09.88,10.51,2.63,2.42,1.75,3.63,4.22,3.63,7.42,0,2.47-.8,4.7-2.4,6.68-1.6,1.98-3.86,3.54-6.8,4.68,4.22.46,7.6,1.88,10.12,4.25ZM1158.9,251.78c-.59.67-.89,2.04-.89,4.1v14.68l3.25.08c3.04,0,5.33-.99,6.88-2.97,1.55-1.98,2.32-4.55,2.32-7.69,0-2.94-.69-5.2-2.09-6.8-1.39-1.6-3.43-2.4-6.11-2.4-1.65,0-2.77.34-3.36,1ZM1174.62,285.55c0-3.91-1.02-7.06-3.05-9.43-2.04-2.37-5.01-3.55-8.92-3.55-1.85,0-3.4.05-4.64.16v18.78c0,1.19.15,2.11.46,2.78.31.67.9,1.17,1.78,1.51.87.34,2.19.5,3.94.5,6.96,0,10.43-3.58,10.43-10.74Z"/><path class="cls-10" d="M1212.33,268.32c1.08.77,1.62,1.7,1.62,2.78,0,.98-.3,1.78-.89,2.4-.59.62-1.4.93-2.43.93-.67,0-1.22-.14-1.66-.42-.44-.28-.89-.68-1.35-1.2-.46-.46-.88-.81-1.24-1.04-.36-.23-.8-.35-1.31-.35-.57,0-1.17.22-1.82.66-.65.44-1.64,1.35-2.97,2.74v16.69c0,1.44.2,2.54.62,3.28.41.75,1.11,1.27,2.09,1.58.98.31,2.42.46,4.33.46.21,0,.31.15.31.46s-.1.46-.31.46c-1.7,0-3.07-.03-4.1-.08l-6.1-.08-4.48.08c-.72.05-1.73.08-3.01.08-.15,0-.23-.15-.23-.46s.08-.46.23-.46c1.75,0,2.91-.36,3.48-1.08.57-.72.85-2.14.85-4.25v-14.76c0-1.65-.19-2.86-.58-3.63-.39-.77-1.02-1.16-1.89-1.16-.77,0-2.06.39-3.86,1.16h-.08c-.21,0-.36-.13-.46-.39-.1-.26-.08-.41.08-.46l10.12-4.95c.31-.1.49-.16.54-.16.51,0,1.03.55,1.55,1.66.51,1.11.82,2.56.93,4.37,2.01-2.27,3.68-3.84,5.02-4.71,1.34-.87,2.55-1.31,3.63-1.31,1.18,0,2.32.39,3.4,1.16Z"/><path class="cls-10" d="M1224.39,296.56c-2.37-1.47-4.2-3.45-5.49-5.95-1.29-2.5-1.93-5.22-1.93-8.15,0-3.35.84-6.19,2.51-8.54,1.67-2.34,3.81-4.1,6.41-5.26,2.6-1.16,5.27-1.74,8-1.74,3.14,0,5.89.75,8.23,2.24,2.34,1.49,4.13,3.47,5.37,5.91,1.24,2.45,1.85,5.06,1.85,7.84,0,3.09-.76,5.85-2.28,8.27-1.52,2.42-3.57,4.29-6.14,5.6-2.58,1.31-5.36,1.97-8.35,1.97s-5.82-.73-8.19-2.2ZM1240.11,294.2c1.21-2.01,1.82-4.95,1.82-8.81,0-3.45-.48-6.46-1.43-9.04-.95-2.58-2.24-4.53-3.86-5.87-1.62-1.34-3.39-2.01-5.29-2.01-2.32,0-4.07.95-5.25,2.86-1.19,1.91-1.78,4.71-1.78,8.42,0,3.35.45,6.35,1.35,9s2.16,4.73,3.79,6.22c1.62,1.49,3.44,2.24,5.45,2.24,2.27,0,4.01-1,5.22-3.01Z"/><path class="cls-10" d="M1290.23,297.29c0,.31-.08.46-.23.46-1.29,0-2.32-.03-3.09-.08l-4.4-.08-5.79.08c-.88.05-2.06.08-3.55.08-.1,0-.16-.15-.16-.46s.05-.46.16-.46c2.11,0,3.17-.54,3.17-1.62,0-.46-.21-.98-.62-1.55l-9.04-11.9-2.32,2.01v7.73c0,2.11.3,3.53.89,4.25.59.72,1.76,1.08,3.52,1.08.21,0,.31.15.31.46s-.1.46-.31.46c-1.29,0-2.32-.03-3.09-.08l-4.4-.08-4.4.08c-.77.05-1.8.08-3.09.08-.15,0-.23-.15-.23-.46s.08-.46.23-.46c1.7,0,2.86-.37,3.48-1.12.62-.75.93-2.15.93-4.21v-39.49c0-1.8-.18-3.1-.54-3.9-.36-.8-.95-1.2-1.78-1.2-.77,0-1.83.31-3.17.93h-.08c-.15,0-.3-.14-.42-.43-.13-.28-.12-.45.04-.5l10.74-5.1.39-.08c.21,0,.43.1.66.31.23.21.35.39.35.54v39.56l8.27-7.42c1.44-1.24,2.16-2.45,2.16-3.63,0-.67-.3-1.21-.89-1.62-.59-.41-1.43-.62-2.51-.62-.15,0-.23-.15-.23-.46s.08-.46.23-.46c1.44,0,2.58.03,3.4.08l5.87.08,5.49-.08c.72-.05,1.7-.08,2.94-.08.15,0,.23.15.23.46s-.08.46-.23.46c-2.11,0-4.51.53-7.19,1.58-2.68,1.06-5.15,2.59-7.42,4.6l-3.32,2.86,10.28,13.6c1.44,1.91,2.86,3.27,4.25,4.1,1.39.82,2.83,1.24,4.33,1.24.15,0,.23.15.23.46Z"/><path class="cls-10" d="M1317.81,292.89c.1,0,.22.1.35.31.13.21.14.36.04.46-1.91,1.75-3.81,3.03-5.72,3.83-1.91.8-3.97,1.2-6.18,1.2-3.14,0-5.86-.69-8.15-2.09-2.29-1.39-4.05-3.22-5.26-5.49-1.21-2.27-1.82-4.71-1.82-7.34,0-3.04.75-5.82,2.24-8.35,1.49-2.52,3.54-4.52,6.14-5.99,2.6-1.47,5.5-2.2,8.69-2.2s5.49.75,7.19,2.24c1.7,1.5,2.55,3.71,2.55,6.65,0,1.49-.31,2.24-.93,2.24l-18.86.08c-.05.46-.08,1.16-.08,2.09,0,4.53,1.04,8.13,3.13,10.78,2.09,2.65,5.06,3.98,8.93,3.98,1.44,0,2.65-.17,3.63-.5.98-.33,2.29-.94,3.94-1.82l.16-.08ZM1300.7,270.98c-1.21,1.47-2.02,3.49-2.43,6.07l12.36-.23c-.1-5.36-1.85-8.04-5.26-8.04-1.91,0-3.47.73-4.68,2.2Z"/><path class="cls-10" d="M1346.48,268.32c1.08.77,1.62,1.7,1.62,2.78,0,.98-.3,1.78-.89,2.4-.59.62-1.4.93-2.43.93-.67,0-1.22-.14-1.66-.42-.44-.28-.89-.68-1.35-1.2-.46-.46-.88-.81-1.24-1.04-.36-.23-.8-.35-1.31-.35-.57,0-1.17.22-1.82.66-.65.44-1.64,1.35-2.97,2.74v16.69c0,1.44.2,2.54.62,3.28.41.75,1.11,1.27,2.09,1.58.98.31,2.42.46,4.33.46.21,0,.31.15.31.46s-.1.46-.31.46c-1.7,0-3.07-.03-4.1-.08l-6.1-.08-4.48.08c-.72.05-1.73.08-3.01.08-.15,0-.23-.15-.23-.46s.08-.46.23-.46c1.75,0,2.91-.36,3.48-1.08.57-.72.85-2.14.85-4.25v-14.76c0-1.65-.19-2.86-.58-3.63-.39-.77-1.02-1.16-1.89-1.16-.77,0-2.06.39-3.86,1.16h-.08c-.21,0-.36-.13-.46-.39-.1-.26-.08-.41.08-.46l10.12-4.95c.31-.1.49-.16.54-.16.51,0,1.03.55,1.55,1.66.51,1.11.82,2.56.93,4.37,2.01-2.27,3.68-3.84,5.02-4.71,1.34-.87,2.55-1.31,3.63-1.31,1.18,0,2.32.39,3.4,1.16Z"/></g></g></g></svg>
