<?xml version="1.0" encoding="UTF-8"?>
<svg xmlns="http://www.w3.org/2000/svg" id="Capa_2" data-name="Capa 2" viewBox="0 0 1022.1 204.51"><defs><style> .cls-1 { fill: #646464; } </style></defs><g id="Capa_2-2" data-name="Capa 2"><g><path class="cls-1" d="M791.13,124.29c-.26-.26-.39-.78-.39-1.56,0-1.11.13-1.66.39-1.66.72,0,1.71-.15,2.98-.44,1.27-.29,2.49-.72,3.66-1.27s1.86-1.16,2.05-1.81c.65-1.24,1.01-3.42,1.07-6.55.2-7.36.39-14.1.59-20.23.2-6.12.37-11.25.54-15.39.16-4.14.24-6.82.24-8.06s-.1-2.15-.29-2.74c-.13-.39-.7-.75-1.71-1.07-1.01-.33-2.09-.59-3.22-.78-1.14-.2-2-.29-2.59-.29-.26,0-.39-.55-.39-1.66,0-.72.13-1.2.39-1.47l5.08.29c2.34.2,4.36.29,6.06.29l9.58-.59c.91,2.74,2.31,6.32,4.2,10.75,1.89,4.43,4.12,9.58,6.69,15.44s5.26,12.31,8.06,19.35c0,.13.1.2.29.2s.29-.1.29-.29c2.87-6.9,5.44-13.17,7.72-18.81,2.28-5.63,4.27-10.67,5.96-15.1l3.52-11.33c1.95.2,4.62.29,8.01.29,1.3,0,2.91-.05,4.84-.15,1.92-.1,4.18-.21,6.79-.34.2.26.29.78.29,1.56,0,1.11-.13,1.66-.39,1.66h-.2c-1.76,0-3.36.52-4.79,1.56-.98.65-1.4,2.41-1.27,5.28s.31,7.67.54,14.41.5,15.39.83,25.94c.13,3.65.65,6.64,1.56,8.99.2.39.7.77,1.51,1.12.81.36,1.68.65,2.59.88.91.23,1.56.34,1.95.34.26,0,.39.59.39,1.76,0,.46-.07.94-.2,1.47l-12.02-.59c-2.28,0-4.63.07-7.03.2-2.41.13-4.4.26-5.96.39-.26-.26-.39-.75-.39-1.47,0-1.17.13-1.76.39-1.76.72,0,1.76-.21,3.13-.64,1.37-.42,2.28-.89,2.74-1.42.65-.85.98-1.99.98-3.42v-5.47l-.98-29.7c-.33-4.04-.72-6.06-1.17-6.06-.2,0-.36.2-.49.59l-18.66,45.53c-1.11,2.48-2.35,3.71-3.71,3.71-.13,0-.28-.02-.44-.05-.16-.03-.34-.08-.54-.15l-21.89-52.57c-.26,8.08-.51,15.76-.73,23.06-.23,7.3-.51,14.14-.83,20.52,0,1.43.1,2.44.29,3.03.26.46.98.93,2.15,1.42s2.39.88,3.66,1.17,2.17.44,2.69.44c.26,0,.39.59.39,1.76,0,.46-.07.94-.2,1.47l-12.31-.59c-1.76,0-4.07.1-6.94.29-2.93.2-4.72.29-5.37.29l.02.03Z"/><path class="cls-1" d="M5.41,124.54c-.36-.6-.54-1.66-.54-3.21,0-1.9.18-2.85.54-2.85,1.07,0,2.5-.18,4.28-.54s3.48-.83,5.09-1.43c1.61-.59,2.53-1.25,2.77-1.96.71-2.14,1.07-7.55,1.07-16.24V30.86c0-6.78-.36-11.66-1.07-14.63-.24-.71-1.16-1.4-2.77-2.05-1.61-.65-3.33-1.22-5.17-1.7-1.85-.47-3.24-.71-4.19-.71-.48,0-.71-.89-.71-2.68s.24-2.85.71-3.21c12.49.36,20.4.54,23.73.54,1.66,0,3.51-.03,5.53-.09s4.16-.15,6.42-.27l12.13-.18c3.57,0,7.11.33,10.62.98,3.51.66,7.05,1.81,10.62,3.48,5.71,2.62,10.2,6.33,13.47,11.15,3.27,4.82,4.91,10.5,4.91,17.04,0,5.59-1.43,11.06-4.28,16.42-2.98,5.35-7.41,9.9-13.29,13.65-5.89,3.75-12.52,5.62-19.9,5.62-2.5,0-5-.45-7.49-1.34-2.5-.89-4.22-1.99-5.17-3.3-.83-.83-1.16-1.99-.98-3.48.18-1.49.45-2.23.8-2.23,2.5,1.19,5.83,1.78,9.99,1.78,5.71,0,10.23-2.35,13.56-7.05s5-10.62,5-17.75c0-7.97-1.61-14.28-4.82-18.91-3.21-4.64-8.15-6.96-14.81-6.96-5.12,0-8.56.42-10.35,1.25-1.43.71-2.14,6.9-2.14,18.56v63.7c0,6.9.47,11.96,1.43,15.17.24.95,1.28,1.78,3.12,2.5,1.84.71,3.84,1.28,5.98,1.7,2.14.42,3.75.62,4.82.62.47,0,.71,1.01.71,3.03,0,1.07-.12,2.08-.36,3.03-12.97-.71-21.41-1.07-25.34-1.07-3.21,0-6.81.09-10.8.27-3.99.18-7.17.33-9.55.45l-3.57.36h0Z"/><path class="cls-1" d="M103.02,124.54c-.48-.48-.71-1.61-.71-3.39s.24-2.68.71-2.68c.95,0,2.29-.21,4.01-.62,1.72-.42,3.33-.95,4.82-1.61,1.49-.65,2.29-1.22,2.41-1.7.83-3.33,1.25-7.61,1.25-12.85V27.46c0-2.38-.09-4.58-.27-6.6s-.39-3.86-.62-5.53c-.48-1.9-3.57-2.85-9.28-2.85h-1.61c-.71,0-1.07-.95-1.07-2.85s.36-2.85,1.07-2.85c3.69-.36,7.2-.83,10.53-1.43,3.33-.59,6.13-1.19,8.39-1.78,3.09-.95,6.66-2.14,10.71-3.57h.36c.47,0,.95.33,1.43.98.47.66.77,1.28.89,1.87-1.43,4.64-2.14,10.23-2.14,16.77v36.04c0,.71.24,1.07.71,1.07.12,0,.36-.18.71-.54,2.5-2.85,6.16-5.44,10.97-7.76,4.82-2.32,9.6-3.48,14.36-3.48,15.23,0,22.84,11.72,22.84,35.15v18.38c0,7.14.47,12.49,1.43,16.06.12.48.92,1.04,2.41,1.7,1.49.65,3.09,1.19,4.82,1.61,1.72.42,2.94.62,3.66.62.36,0,.56.86.62,2.59s.03,2.88-.09,3.48c-.48-.12-2.17-.27-5.09-.45-2.92-.18-5.98-.36-9.19-.54s-5.71-.27-7.49-.27c-1.9,0-4.4.09-7.49.27-3.1.18-5.98.36-8.65.54-2.68.18-4.43.33-5.26.45-.36-.6-.54-1.72-.54-3.39,0-1.78.18-2.68.54-2.68.95,0,2.23-.21,3.84-.62,1.61-.42,3.09-.95,4.46-1.61,1.37-.65,2.17-1.22,2.41-1.7.71-3.57,1.07-7.91,1.07-13.03v-17.49c0-9.87-1.34-16.68-4.01-20.43-2.68-3.75-6.93-5.62-12.76-5.62-3.57,0-6.84,1.01-9.81,3.03-2.98,2.02-4.46,4.28-4.46,6.78v30.69c0,7.14.47,12.49,1.43,16.06.24.48,1.07,1.04,2.5,1.7,1.43.65,2.97,1.19,4.64,1.61,1.66.42,2.85.62,3.57.62.36,0,.56.86.62,2.59s-.03,2.88-.27,3.48c-.6-.12-2.29-.27-5.09-.45-2.8-.18-5.74-.36-8.83-.54s-5.59-.27-7.49-.27-4.46.09-7.67.27c-3.21.18-6.22.36-9.01.54-2.8.18-4.55.33-5.26.45h-.03Z"/><path class="cls-1" d="M205.45,124.37c-.48-.48-.71-1.61-.71-3.39,0-1.66.24-2.5.71-2.5.95,0,2.2-.24,3.75-.71,1.54-.47,3-1.07,4.37-1.78,1.37-.71,2.11-1.31,2.23-1.78.47-2.02.83-4.16,1.07-6.42s.36-4.52.36-6.78v-28.73c0-5.59-.95-9.4-2.85-11.42-1.07-1.31-2.41-2.2-4.01-2.68-1.61-.47-3.03-.77-4.28-.89s-1.87-.3-1.87-.54c0-3.57.3-5.35.89-5.35,3.81-.47,8-1.16,12.58-2.05s8.71-1.75,12.4-2.59l5.71-1.43c.83,0,1.25,1.19,1.25,3.57,0,1.55-.21,3.78-.62,6.69-.42,2.92-.62,5.8-.62,8.65v33.9c0,7.49.42,12.85,1.25,16.06.24.48,1.01,1.07,2.32,1.78,1.31.71,2.73,1.31,4.28,1.78,1.54.48,2.62.71,3.21.71.36,0,.56.83.62,2.5s-.03,2.8-.27,3.39c-3.69-.24-7.44-.48-11.24-.71-3.81-.24-6.96-.36-9.46-.36-3.69,0-7.47.12-11.33.36-3.87.24-7.11.47-9.73.71h-.01ZM225.07,26.76c-2.98,0-5.53-1.07-7.67-3.21-2.14-2.14-3.21-4.7-3.21-7.67s1.07-5.5,3.21-7.58,4.7-3.12,7.67-3.12,5.5,1.04,7.58,3.12,3.12,4.61,3.12,7.58-1.04,5.53-3.12,7.67-4.61,3.21-7.58,3.21Z"/><path class="cls-1" d="M256.66,124.37c-.48-.48-.71-1.61-.71-3.39,0-1.66.24-2.5.71-2.5.95,0,2.2-.24,3.75-.71,1.54-.47,3-1.07,4.37-1.78,1.37-.71,2.11-1.31,2.23-1.78.47-2.02.83-4.16,1.07-6.42s.36-4.52.36-6.78V26.78c0-4.52-.36-8.56-1.07-12.13-.48-1.9-3.45-2.85-8.92-2.85h-1.78c-.71,0-1.07-.71-1.07-2.14,0-1.9.36-2.85,1.07-2.85,6.54-.59,12.46-1.61,17.75-3.03,5.29-1.43,8.83-2.5,10.62-3.21l1.25-.54h.36c.47,0,.98.36,1.52,1.07s.86,1.31.98,1.78c-1.43,4.4-2.14,9.99-2.14,16.77v78.51c0,7.49.42,12.85,1.25,16.06.24.48,1.01,1.07,2.32,1.78,1.31.71,2.74,1.31,4.28,1.78,1.54.48,2.62.71,3.21.71.36,0,.56.83.62,2.5s-.03,2.8-.27,3.39c-3.69-.24-7.44-.48-11.24-.71-3.81-.24-6.96-.36-9.46-.36-3.69,0-7.47.12-11.33.36-3.87.24-7.11.47-9.73.71h0Z"/><path class="cls-1" d="M454.01,124.9c-12.37,0-22.13-2.85-29.26-8.57-4.17-3.21-8-6.96-11.51-11.24s-6.57-8.48-9.19-12.58-4.76-7.46-6.42-10.08c-2.14-3.09-4.19-5.89-6.16-8.39s-4.85-3.75-8.65-3.75c-1.9,0-2.85,1.01-2.85,3.03v25.16c0,6.9.47,11.96,1.43,15.17.24.95,1.28,1.78,3.12,2.5,1.84.71,3.84,1.28,5.98,1.7,2.14.42,3.75.62,4.82.62.47,0,.71,1.01.71,3.03,0,1.07-.12,2.08-.36,3.03-12.97-.71-21.41-1.07-25.34-1.07-3.21,0-6.81.06-10.8.18s-7.17.3-9.55.54l-3.57.36c-.36-.6-.54-1.66-.54-3.21,0-1.9.18-2.85.54-2.85,1.07,0,2.5-.18,4.28-.54s3.48-.83,5.09-1.43c1.61-.59,2.53-1.25,2.77-1.96.71-2.14,1.07-7.55,1.07-16.24V30.86c0-6.78-.36-11.66-1.07-14.63-.24-.71-1.16-1.4-2.77-2.05-1.61-.65-3.33-1.22-5.17-1.7-1.85-.47-3.24-.71-4.19-.71-.48,0-.71-.89-.71-2.68s.24-2.85.71-3.21c12.73.36,20.64.54,23.73.54,5.83-.12,10.35-.18,13.56-.18s5.65-.03,7.32-.09c1.66-.06,3.09-.09,4.28-.09,6.3,0,12.49,1.13,18.56,3.39,6.07,2.26,11.09,5.71,15.08,10.35,3.98,4.64,5.98,10.53,5.98,17.67,0,4.28-.95,8.45-2.85,12.49-1.9,4.05-4.46,7.61-7.67,10.71-3.21,3.1-6.84,5.47-10.88,7.14-.95.36-1.19.95-.71,1.78,3.33,5.95,6.66,11.45,9.99,16.51s6.66,9.67,9.99,13.83c4.16,5.12,8.65,9.49,13.47,13.12,4.82,3.63,9.25,5.44,13.29,5.44.47.6.71,1.55.71,2.85s-.24,2.38-.71,3.21c-.71.12-1.52.21-2.41.27s-1.94.09-3.12.09h-.02ZM391.38,61.73h4.64c4.4,0,8.36-2.08,11.87-6.25,3.51-4.16,5.26-9.57,5.26-16.24,0-16.18-6.9-24.27-20.7-24.27-5.12,0-8.56.42-10.35,1.25-1.43.6-2.14,6.78-2.14,18.56v20.52c0,2.62,1.01,4.34,3.03,5.17s4.82,1.25,8.39,1.25h0Z"/><path class="cls-1" d="M496.84,124.9c-6.9,0-13.24-1.75-19-5.26-5.77-3.51-10.38-8.27-13.83-14.28s-5.17-12.64-5.17-19.9c0-8.09,1.61-15.17,4.82-21.23s7.58-10.8,13.12-14.19c5.53-3.39,11.87-5.09,19-5.09,5.83,0,10.82,1.07,14.99,3.21,4.16,2.14,7.58,4.91,10.26,8.3s4.64,6.96,5.89,10.71,1.87,7.23,1.87,10.44c0,2.62-.45,4.25-1.34,4.91s-2.71.98-5.44.98h-42.65c-.83,0-1.25.36-1.25,1.07,0,4.4.77,8.56,2.32,12.49,1.54,4.05,4.19,7.56,7.94,10.53,3.75,2.98,8.24,4.46,13.47,4.46,3.09,0,5.65-.24,7.67-.71s3.98-1.01,5.89-1.61c.95-.36,2.14-.98,3.57-1.87,1.43-.89,3.33-2.11,5.71-3.66.24.12.54.48.89,1.07.36.6.54,1.19.54,1.78,0,1.31-.36,2.44-1.07,3.39-1.19,2.14-3.18,4.31-5.98,6.51-2.8,2.2-6.1,4.08-9.9,5.62-3.81,1.54-7.91,2.32-12.31,2.32h0ZM479.35,74.94h28.91c1.07,0,1.61-.89,1.61-2.68,0-2.85-.62-5.74-1.87-8.65-1.25-2.91-3.03-5.38-5.35-7.41-2.32-2.02-5.03-3.03-8.12-3.03-3.69,0-6.75,1.25-9.19,3.75s-4.22,5.35-5.35,8.56c-1.13,3.21-1.69,5.95-1.69,8.21,0,.83.36,1.25,1.07,1.25h-.02Z"/><path class="cls-1" d="M574.64,124.9c-6.9,0-13.24-1.75-19-5.26-5.77-3.51-10.38-8.27-13.83-14.28s-5.17-12.64-5.17-19.9c0-8.09,1.61-15.17,4.82-21.23s7.58-10.8,13.12-14.19c5.53-3.39,11.87-5.09,19-5.09,5.83,0,10.82,1.07,14.99,3.21,4.16,2.14,7.58,4.91,10.26,8.3s4.64,6.96,5.89,10.71,1.87,7.23,1.87,10.44c0,2.62-.45,4.25-1.34,4.91s-2.71.98-5.44.98h-42.65c-.83,0-1.25.36-1.25,1.07,0,4.4.77,8.56,2.32,12.49,1.54,4.05,4.19,7.56,7.94,10.53,3.75,2.98,8.24,4.46,13.47,4.46,3.09,0,5.65-.24,7.67-.71s3.98-1.01,5.89-1.61c.95-.36,2.14-.98,3.57-1.87,1.43-.89,3.33-2.11,5.71-3.66.24.12.54.48.89,1.07.36.6.54,1.19.54,1.78,0,1.31-.36,2.44-1.07,3.39-1.19,2.14-3.18,4.31-5.98,6.51-2.8,2.2-6.1,4.08-9.9,5.62-3.81,1.54-7.91,2.32-12.31,2.32h0ZM557.15,74.94h28.91c1.07,0,1.61-.89,1.61-2.68,0-2.85-.62-5.74-1.87-8.65-1.25-2.91-3.03-5.38-5.35-7.41-2.32-2.02-5.03-3.03-8.12-3.03-3.69,0-6.75,1.25-9.19,3.75s-4.22,5.35-5.35,8.56c-1.13,3.21-1.69,5.95-1.69,8.21,0,.83.36,1.25,1.07,1.25h-.02Z"/><path class="cls-1" d="M640.66,125.61c-7.49,0-15.17-1.67-23.02-5-.36-1.43-.74-3.45-1.16-6.07-.42-2.62-.78-5.26-1.07-7.94-.3-2.68-.45-4.73-.45-6.16.83-.59,1.66-.89,2.5-.89,2.62,0,4.04.48,4.28,1.43.95,5,3.3,9.01,7.05,12.04s7.82,4.55,12.22,4.55c3.33,0,6.07-.86,8.21-2.59,2.14-1.72,3.21-4.31,3.21-7.76,0-2.5-.95-4.79-2.85-6.87s-3.69-3.54-5.35-4.37l-11.78-6.25c-5.47-2.85-9.7-6.04-12.67-9.55-2.97-3.51-4.46-7.76-4.46-12.76s1.34-8.98,4.02-12.31,6.18-5.89,10.53-7.67c4.34-1.78,9.01-2.68,14.01-2.68,6.42,0,13.32,1.01,20.7,3.03.59,2.62,1.04,5.59,1.34,8.92.3,3.33.5,7.02.62,11.06,0,.95-.77,1.43-2.32,1.43-2.62,0-4.05-.47-4.28-1.43-.83-4.16-2.59-7.7-5.26-10.62-2.68-2.91-6.28-4.37-10.8-4.37-3.45,0-6.16.77-8.12,2.32s-2.94,3.75-2.94,6.6c0,3.09,1.19,5.71,3.57,7.85s5.59,4.22,9.64,6.25c3.09,1.55,6.09,3.21,9.01,5,2.91,1.78,5.68,3.75,8.3,5.89,4.64,3.69,6.96,8.57,6.96,14.63,0,5-1.34,9.31-4.01,12.94-2.68,3.63-6.25,6.42-10.71,8.39s-9.43,2.94-14.9,2.94l-.02.02Z"/><path class="cls-1" d="M719.89,124.9c-6.9,0-13.24-1.75-19-5.26-5.77-3.51-10.38-8.27-13.83-14.28s-5.17-12.64-5.17-19.9c0-8.09,1.61-15.17,4.82-21.23s7.58-10.8,13.12-14.19c5.53-3.39,11.87-5.09,19-5.09,5.83,0,10.82,1.07,14.99,3.21,4.16,2.14,7.58,4.91,10.26,8.3s4.64,6.96,5.89,10.71,1.87,7.23,1.87,10.44c0,2.62-.45,4.25-1.34,4.91s-2.71.98-5.44.98h-42.65c-.83,0-1.25.36-1.25,1.07,0,4.4.77,8.56,2.32,12.49,1.54,4.05,4.19,7.56,7.94,10.53,3.75,2.98,8.24,4.46,13.47,4.46,3.09,0,5.65-.24,7.67-.71s3.98-1.01,5.89-1.61c.95-.36,2.14-.98,3.57-1.87,1.43-.89,3.33-2.11,5.71-3.66.24.12.54.48.89,1.07.36.6.54,1.19.54,1.78,0,1.31-.36,2.44-1.07,3.39-1.19,2.14-3.18,4.31-5.98,6.51-2.8,2.2-6.1,4.08-9.9,5.62-3.81,1.54-7.91,2.32-12.31,2.32h0ZM702.4,74.94h28.91c1.07,0,1.61-.89,1.61-2.68,0-2.85-.62-5.74-1.87-8.65-1.25-2.91-3.03-5.38-5.35-7.41-2.32-2.02-5.03-3.03-8.12-3.03-3.69,0-6.75,1.25-9.19,3.75s-4.22,5.35-5.35,8.56c-1.13,3.21-1.69,5.95-1.69,8.21,0,.83.36,1.25,1.07,1.25h-.02Z"/><path class="cls-1" d="M752.35,147.47c-.53,0-1.27-.55-2.22-1.66s-1.43-2.03-1.43-2.77c0-.11.9-.95,2.69-2.53s3.59-3.88,5.39-6.89c1.79-3.01,2.69-6.31,2.69-9.9,0-1.48-.4-2.96-1.19-4.44-.79-1.47-1.58-2.96-2.38-4.44-.79-1.47-1.19-3.01-1.19-4.59,0-2.22,1.11-4.44,3.33-6.65,2.22-2.22,5.12-3.33,8.71-3.33,2.33,0,4.01.32,5.07.95,1.47,3.17,2.22,6.86,2.22,11.09,0,5.6-1.79,11.61-5.39,18.05-3.59,6.43-8.97,12.14-16.15,17.1h-.16.02Z"/><path class="cls-1" d="M907.81,124.41c-4.28,0-8.28-.84-12-2.53-3.73-1.68-7.02-3.99-9.87-6.9-2.85-2.92-5.07-6.3-6.66-10.16-1.59-3.85-2.38-7.95-2.38-12.3,0-4.6.81-8.93,2.43-12.98s3.89-7.61,6.8-10.69c2.92-3.08,6.32-5.49,10.21-7.24s8.07-2.62,12.54-2.62c7.32,0,14.97.87,22.94,2.62.13,0,.24.63.34,1.9s.18,2.76.24,4.47c.06,1.72.13,3.32.19,4.81.06,1.49.1,2.5.1,3.01,0,.97-.78,1.46-2.33,1.46-.45,0-.91-.13-1.36-.39-.26-1.17-.73-2.36-1.41-3.6-.68-1.23-1.7-2.62-3.06-4.18-1.36-1.56-3.37-2.83-6.03-3.84-2.66-1-5.73-1.51-9.23-1.51-4.21,0-7.82,1.21-10.84,3.65-3.01,2.43-5.31,5.65-6.9,9.67s-2.38,8.49-2.38,13.41c0,5.44.89,10.37,2.67,14.77,1.78,4.41,4.39,7.92,7.82,10.55,3.43,2.62,7.55,3.94,12.34,3.94,5.7,0,10.27-1.81,13.71-5.44,1.04-1.1,1.83-2.35,2.38-3.74s.99-2.62,1.31-3.69c.32-1.07.61-1.6.87-1.6,2.27,0,3.53.29,3.79.87,0,.39-.15,1.31-.44,2.77s-.63,3.05-1.02,4.76c-.39,1.72-.79,3.22-1.22,4.52-.42,1.3-.76,2.01-1.02,2.14-5.64,2.72-13.16,4.08-22.55,4.08h.02Z"/><path class="cls-1" d="M939.49,124.12c-.19-.19-.29-.71-.29-1.56,0-1.1.1-1.65.29-1.65.58,0,1.34-.1,2.28-.29.94-.19,1.85-.45,2.72-.78.87-.32,1.38-.68,1.51-1.07.45-1.3.68-4.24.68-8.85v-36.74c0-3.95-.23-6.61-.68-7.97-.13-.52-.6-.96-1.41-1.31-.81-.36-1.72-.63-2.72-.83-1.01-.19-1.83-.29-2.48-.29-.26,0-.39-.49-.39-1.46,0-.91.13-1.49.39-1.75,4.28.19,8.59.29,12.93.29l8.36-.1h5.83c4.86,0,9.46,1.17,13.8,3.5,2.2,1.23,4,2.98,5.39,5.25s2.09,4.89,2.09,7.87c0,2.27-.68,4.44-2.04,6.51-1.36,2.01-2.64,3.42-3.84,4.23s-2.22,1.38-3.06,1.7c-.52.19-.65.39-.39.58,1.62.26,3.39,1.12,5.3,2.58s3.58,3.35,5.01,5.69c1.42,2.33,2.14,4.99,2.14,7.97,0,3.69-1.02,6.92-3.06,9.67s-4.91,4.86-8.6,6.32-8.04,2.19-13.02,2.19l-13.8-.1-12.93.39h0ZM963.5,87.67c2.4,0,4.21-.19,5.44-.58,4.73-1.04,7.1-4.21,7.1-9.53,0-8.75-3.73-13.12-11.18-13.12-2.98,0-5.05.16-6.22.49-.52.13-.78.49-.78,1.07l-.19,9.33v11.37c0,.65,1.94.97,5.83.97h0ZM965.06,118.97c1.42,0,2.82-.15,4.18-.44s2.85-.83,4.47-1.6c1.56-.71,2.83-1.96,3.84-3.74,1-1.78,1.51-3.94,1.51-6.46,0-4.15-1.15-7.56-3.45-10.25-2.3-2.69-6.01-4.03-11.13-4.03-.91,0-1.86.05-2.87.15-1.01.1-2.06.21-3.16.34-.52.33-.78.97-.78,1.94v18.08c0,2.66.39,4.34,1.17,5.05.84.65,2.92.97,6.22.97h0Z"/><path class="cls-1" d="M996.45,124.12c-.26-.26-.39-.71-.39-1.36,0-1.23.13-1.85.39-1.85.52,0,1.26-.1,2.24-.29.97-.19,1.88-.47,2.72-.83s1.33-.7,1.46-1.02c.26-1.04.45-2.24.58-3.6s.19-2.88.19-4.57v-37.52c0-3.76-.26-6.48-.78-8.16-.13-.39-.6-.74-1.41-1.07-.81-.32-1.69-.6-2.62-.83-.94-.23-1.67-.34-2.19-.34-.26,0-.39-.49-.39-1.46,0-1.04.06-1.62.19-1.75l5.44.29c1.62.07,3.06.15,4.33.24s2.32.11,3.16.05l12.44-.58c.19.58.29,1.1.29,1.56,0,1.1-.13,1.65-.39,1.65-.39,0-1.07.13-2.04.39-.97.26-1.9.55-2.77.88s-1.38.65-1.51.97c-.26,1.04-.45,2.25-.58,3.65-.13,1.39-.19,3.03-.19,4.91v36.55c0,3.56.29,6.48.88,8.75.13.26.6.57,1.41.92.81.36,1.68.65,2.62.87.94.23,1.6.34,1.99.34.26,0,.39.62.39,1.85,0,.39-.07.84-.19,1.36l-12.34-.58c-2.27-.13-4.6-.1-7,.1-2.4.19-4.37.36-5.93.49h0Z"/></g><g><path class="cls-1" d="M55.87,203.04c0,.31-.13.46-.39.46-.98,0-2.55-.05-4.71-.15-2.16-.1-3.74-.16-4.71-.16-1.29,0-2.81.05-4.56.16-1.75.1-3.12.15-4.1.15-.21,0-.31-.15-.31-.46s.1-.46.31-.46c1.49,0,2.59-.17,3.28-.5.7-.33,1.04-.89,1.04-1.66s-.44-2.09-1.31-3.94l-5.87-11.9H15.84l-3.71,8.35c-.67,1.55-1.01,2.94-1.01,4.17,0,1.8.64,3.17,1.93,4.1,1.29.93,3.09,1.39,5.41,1.39.26,0,.39.15.39.46s-.13.46-.39.46c-.93,0-2.27-.05-4.02-.15-1.96-.1-3.66-.16-5.1-.16s-3.01.05-4.87.16c-1.65.1-3.01.15-4.1.15-.26,0-.39-.15-.39-.46s.13-.46.39-.46c1.44,0,2.65-.28,3.63-.85.98-.57,1.93-1.58,2.86-3.05s2.03-3.64,3.32-6.53l16.61-37.4c.1-.15.33-.23.7-.23s.57.08.62.23l18.93,38.17c1.8,3.71,3.31,6.25,4.52,7.61,1.21,1.37,2.51,2.05,3.9,2.05.26,0,.39.15.39.46ZM16.69,182.64h16.92l-8.89-18.01-8.04,18.01Z"/><path class="cls-1" d="M81.37,174.06c1.08.77,1.62,1.7,1.62,2.78,0,.98-.3,1.78-.89,2.4-.59.62-1.4.93-2.43.93-.67,0-1.22-.14-1.66-.42-.44-.28-.89-.68-1.35-1.2-.46-.46-.88-.81-1.24-1.04-.36-.23-.8-.35-1.31-.35-.57,0-1.17.22-1.82.66-.65.44-1.64,1.35-2.97,2.74v16.69c0,1.44.2,2.54.62,3.28.41.75,1.11,1.27,2.09,1.58.98.31,2.42.46,4.33.46.21,0,.31.15.31.46s-.1.46-.31.46c-1.7,0-3.07-.03-4.1-.08l-6.1-.08-4.48.08c-.72.05-1.73.08-3.01.08-.15,0-.23-.15-.23-.46s.08-.46.23-.46c1.75,0,2.91-.36,3.48-1.08.57-.72.85-2.14.85-4.25v-14.76c0-1.65-.19-2.86-.58-3.63-.39-.77-1.02-1.16-1.89-1.16-.77,0-2.06.39-3.86,1.16h-.08c-.21,0-.36-.13-.46-.39-.1-.26-.08-.41.08-.46l10.12-4.95c.31-.1.49-.16.54-.16.51,0,1.03.55,1.55,1.66.51,1.11.82,2.56.93,4.37,2.01-2.27,3.68-3.84,5.02-4.71,1.34-.87,2.55-1.31,3.63-1.31,1.18,0,2.32.39,3.4,1.16Z"/><path class="cls-1" d="M87.55,203.04c0-.31.08-.46.23-.46,1.75,0,2.91-.36,3.48-1.08.57-.72.85-2.14.85-4.25v-14.06c0-1.75-.18-3.03-.54-3.83-.36-.8-.98-1.2-1.85-1.2-.77,0-1.78.31-3.01.93h-.08c-.21,0-.36-.13-.46-.39-.1-.26-.08-.44.08-.54l11.13-5.18.23-.08c.21,0,.43.12.66.35.23.23.35.42.35.58v1.62c-.1,2.16-.15,4.71-.15,7.65v14.14c0,2.11.3,3.53.89,4.25.59.72,1.76,1.08,3.52,1.08.15,0,.23.15.23.46s-.08.46-.23.46c-1.29,0-2.32-.03-3.09-.08l-4.48-.08-4.48.08c-.72.05-1.73.08-3.01.08-.16,0-.23-.15-.23-.46ZM91.76,163.71c-.75-.72-1.12-1.75-1.12-3.09s.37-2.28,1.12-2.97c.75-.69,1.79-1.04,3.13-1.04s2.29.35,3.01,1.04c.72.7,1.08,1.69,1.08,2.97s-.35,2.37-1.04,3.09c-.69.72-1.71,1.08-3.05,1.08s-2.38-.36-3.13-1.08Z"/><path class="cls-1" d="M125.41,175.3c.21-.36.08-.54-.39-.54-4.79,0-8.51.61-11.17,1.82-2.65,1.21-4.44,3.21-5.37,5.99,0,.05-.1.08-.31.08-.41,0-.59-.1-.54-.31l3.09-11.44c0-.05.1-.08.31-.08.41,0,.59.1.54.31-.1.41-.16.7-.16.85,0,.67.31,1.12.93,1.35.62.23,1.62.35,3.01.35h17.31c.21,0,.39.1.54.31.15.21.18.41.08.62l-17.85,27.05c-.15.36-.03.54.39.54,3.86,0,6.94-.26,9.23-.77,2.29-.51,4.06-1.38,5.29-2.59,1.24-1.21,2.14-2.9,2.7-5.06.05-.15.22-.23.5-.23s.42.08.42.23l-.15,8.89c0,.21-.08.4-.23.58-.15.18-.34.27-.54.27h-24.81c-.21,0-.37-.1-.5-.31-.13-.2-.14-.41-.04-.62l17.7-27.28Z"/><path class="cls-1" d="M146.2,202.31c-2.37-1.47-4.2-3.45-5.49-5.95-1.29-2.5-1.93-5.22-1.93-8.15,0-3.35.84-6.19,2.51-8.54,1.67-2.34,3.81-4.1,6.41-5.26,2.6-1.16,5.27-1.74,8-1.74,3.14,0,5.89.75,8.23,2.24,2.34,1.49,4.13,3.47,5.37,5.91,1.24,2.45,1.85,5.06,1.85,7.84,0,3.09-.76,5.85-2.28,8.27-1.52,2.42-3.57,4.29-6.14,5.6-2.58,1.31-5.36,1.97-8.35,1.97s-5.82-.73-8.19-2.2ZM161.93,199.95c1.21-2.01,1.82-4.95,1.82-8.81,0-3.45-.48-6.46-1.43-9.04-.95-2.58-2.24-4.53-3.86-5.87-1.62-1.34-3.39-2.01-5.29-2.01-2.32,0-4.07.95-5.25,2.86-1.19,1.91-1.78,4.71-1.78,8.42,0,3.35.45,6.35,1.35,9s2.16,4.73,3.79,6.22c1.62,1.49,3.44,2.24,5.45,2.24,2.27,0,4.01-1,5.22-3.01Z"/><path class="cls-1" d="M212.97,203.04c0,.31-.08.46-.23.46-1.29,0-2.29-.03-3.01-.08l-4.48-.08-4.4.08c-.77.05-1.8.08-3.09.08-.15,0-.23-.15-.23-.46s.08-.46.23-.46c1.75,0,2.91-.36,3.48-1.08.57-.72.85-2.14.85-4.25v-11.59c0-2.88-.53-5.01-1.58-6.38-1.06-1.36-2.72-2.05-4.98-2.05-1.34,0-2.7.31-4.1.93s-2.65,1.44-3.79,2.47v16.61c0,2.11.28,3.53.85,4.25.57.72,1.73,1.08,3.48,1.08.15,0,.23.15.23.46s-.08.46-.23.46c-1.29,0-2.29-.03-3.01-.08l-4.48-.08-4.48.08c-.72.05-1.73.08-3.01.08-.15,0-.23-.15-.23-.46s.08-.46.23-.46c1.75,0,2.91-.36,3.48-1.08.57-.72.85-2.14.85-4.25v-14.76c0-1.65-.19-2.86-.58-3.63-.39-.77-1.02-1.16-1.89-1.16-.77,0-2.06.39-3.86,1.16h-.08c-.21,0-.36-.13-.46-.39-.1-.26-.08-.41.08-.46l10.12-4.95c.31-.1.49-.16.54-.16.51,0,1.04.58,1.58,1.74.54,1.16.84,2.67.89,4.52,3.61-4.28,7.52-6.41,11.75-6.41,2.83,0,5.05.86,6.64,2.59,1.6,1.73,2.4,4.06,2.4,6.99v14.91c0,2.11.28,3.53.85,4.25.57.72,1.73,1.08,3.48,1.08.15,0,.23.15.23.46Z"/><path class="cls-1" d="M246.5,199.33c.21,0,.34.12.39.35.05.23-.03.4-.23.5l-7.96,3.79c-.21.1-.44.15-.69.15-.77,0-1.51-.45-2.2-1.35-.69-.9-1.15-2.1-1.35-3.59l-3.55,2.47c-1.24.88-2.36,1.49-3.36,1.85s-2.12.54-3.36.54c-2.11,0-3.72-.5-4.83-1.51-1.11-1-1.66-2.33-1.66-3.98,0-1.39.37-2.52,1.12-3.4.75-.88,1.7-1.58,2.86-2.13,1.16-.54,2.87-1.22,5.14-2.05l7.5-2.78v-4.64c0-3.19-.32-5.53-.97-6.99-.64-1.47-1.66-2.2-3.05-2.2-1.7,0-2.92.63-3.67,1.89-.75,1.26-1.2,2.67-1.35,4.21-.31,2.63-1.62,3.94-3.94,3.94-1.13,0-1.97-.26-2.51-.77-.54-.51-.81-1.16-.81-1.93,0-1.44.86-2.85,2.59-4.21,1.72-1.36,3.81-2.47,6.26-3.32s4.6-1.28,6.45-1.28c2.21,0,3.98.7,5.29,2.09s1.97,3.48,1.97,6.26v13.91c0,1.6.26,2.81.77,3.63.51.82,1.26,1.24,2.24,1.24.77,0,1.7-.23,2.78-.69h.15ZM234.29,197.94v-8.42l-4.64,1.93c-1.34.52-2.43,1.12-3.28,1.82-.85.69-1.27,1.69-1.27,2.97s.4,2.23,1.2,2.97c.8.75,1.76,1.12,2.9,1.12.93,0,1.91-.31,2.94-.93l2.16-1.47Z"/><path class="cls-1" d="M301.99,180.63c2.52,2.37,3.79,5.31,3.79,8.81,0,2.68-.73,5.11-2.2,7.3-1.47,2.19-3.5,3.92-6.1,5.18-2.6,1.26-5.5,1.89-8.69,1.89-1.49,0-3.22-.08-5.18-.23-.67-.05-1.52-.1-2.55-.15-1.03-.05-2.19-.08-3.48-.08l-5.56.08c-.98.05-2.32.08-4.02.08-.15,0-.23-.15-.23-.46s.08-.46.23-.46c1.65,0,2.88-.14,3.71-.42.82-.28,1.4-.79,1.74-1.51.33-.72.5-1.85.5-3.4v-35.78c0-1.49-.17-2.61-.5-3.36-.34-.75-.9-1.26-1.7-1.55-.8-.28-2.02-.43-3.67-.43-.1,0-.15-.15-.15-.46s.05-.46.15-.46l4.02.08c2.27.1,4.1.16,5.49.16s2.96-.08,4.56-.23c.57-.05,1.25-.1,2.05-.15.8-.05,1.71-.08,2.74-.08,4.58,0,8.09.88,10.51,2.63,2.42,1.75,3.63,4.22,3.63,7.42,0,2.47-.8,4.7-2.4,6.68-1.6,1.98-3.86,3.54-6.8,4.68,4.22.46,7.6,1.88,10.12,4.25ZM282.24,157.52c-.59.67-.89,2.04-.89,4.1v14.68l3.25.08c3.04,0,5.33-.99,6.88-2.97,1.55-1.98,2.32-4.55,2.32-7.69,0-2.94-.69-5.2-2.09-6.8-1.39-1.6-3.43-2.4-6.11-2.4-1.65,0-2.77.34-3.36,1ZM297.97,191.29c0-3.91-1.02-7.06-3.05-9.43-2.04-2.37-5.01-3.55-8.92-3.55-1.85,0-3.4.05-4.64.16v18.78c0,1.19.15,2.11.46,2.78.31.67.9,1.17,1.78,1.51.87.34,2.19.5,3.94.5,6.96,0,10.43-3.58,10.43-10.74Z"/><path class="cls-1" d="M348.04,198.64c.15,0,.28.13.39.39.1.26.08.44-.08.54l-10.12,4.87-.31.08c-.52,0-.98-.58-1.39-1.74-.41-1.16-.64-2.72-.69-4.68-3.61,4.17-7.42,6.26-11.44,6.26-2.78,0-4.95-.86-6.49-2.59s-2.32-4.08-2.32-7.07v-11.51c0-3.5-.8-5.26-2.4-5.26-.52,0-1.24.21-2.16.62h-.08c-.21,0-.36-.13-.46-.39-.1-.26-.08-.44.08-.54l9.81-4.56.31-.08c.21,0,.44.1.7.31.26.21.39.39.39.54v17.54c0,2.89.53,5.04,1.58,6.45,1.06,1.42,2.67,2.12,4.83,2.12,1.29,0,2.61-.31,3.98-.93,1.36-.62,2.59-1.47,3.67-2.55v-13.29c0-1.8-.19-3.13-.58-3.98s-.99-1.28-1.82-1.28c-.46,0-1.19.21-2.16.62h-.08c-.21,0-.36-.14-.46-.43-.1-.28-.05-.45.16-.5l9.74-4.56c.1-.05.23-.08.39-.08.21,0,.44.1.7.31.26.21.39.39.39.54v20.94c0,1.8.18,3.07.54,3.79.36.72.95,1.08,1.78,1.08.62,0,1.78-.31,3.48-.93l.16-.08Z"/><path class="cls-1" d="M358.82,181.71c1.11,1.08,2.72,2.22,4.83,3.4,1.86,1.03,3.28,1.88,4.29,2.55,1.01.67,1.88,1.57,2.63,2.7.75,1.13,1.12,2.5,1.12,4.1,0,1.75-.44,3.37-1.31,4.87-.88,1.49-2.18,2.7-3.9,3.63s-3.77,1.39-6.14,1.39c-2.83,0-5.44-.72-7.8-2.16-.31-.31-.46-.62-.46-.93l-.15-7.11c0-.15.14-.24.42-.27.28-.02.45.01.5.12.87,2.58,2.2,4.69,3.98,6.34,1.78,1.65,3.67,2.47,5.68,2.47,1.29,0,2.29-.33,3.01-1,.72-.67,1.08-1.67,1.08-3.01,0-1.96-.57-3.52-1.7-4.68-1.13-1.16-2.78-2.3-4.95-3.44-1.75-.93-3.12-1.71-4.1-2.36-.98-.64-1.82-1.52-2.51-2.63-.69-1.11-1.04-2.48-1.04-4.13,0-2.94,1.07-5.12,3.21-6.57,2.14-1.44,4.73-2.16,7.77-2.16,2.01,0,4.07.39,6.18,1.16.46.21.7.49.7.85,0,1.19-.03,2.11-.08,2.78l-.08,3.71c0,.15-.15.23-.46.23s-.46-.08-.46-.23c0-1.03-.41-2.1-1.24-3.21-.83-1.11-1.88-2.02-3.17-2.74-1.29-.72-2.6-1.08-3.94-1.08-2.37,0-3.55,1.13-3.55,3.4,0,1.6.55,2.94,1.66,4.02Z"/><path class="cls-1" d="M377.71,203.04c0-.31.08-.46.23-.46,1.75,0,2.91-.36,3.48-1.08.57-.72.85-2.14.85-4.25v-14.06c0-1.75-.18-3.03-.54-3.83-.36-.8-.98-1.2-1.85-1.2-.77,0-1.78.31-3.01.93h-.08c-.21,0-.36-.13-.46-.39-.1-.26-.08-.44.08-.54l11.13-5.18.23-.08c.21,0,.43.12.66.35.23.23.35.42.35.58v1.62c-.1,2.16-.15,4.71-.15,7.65v14.14c0,2.11.3,3.53.89,4.25.59.72,1.76,1.08,3.52,1.08.15,0,.23.15.23.46s-.08.46-.23.46c-1.29,0-2.32-.03-3.09-.08l-4.48-.08-4.48.08c-.72.05-1.73.08-3.01.08-.16,0-.23-.15-.23-.46ZM381.92,163.71c-.75-.72-1.12-1.75-1.12-3.09s.37-2.28,1.12-2.97c.75-.69,1.79-1.04,3.13-1.04s2.29.35,3.01,1.04c.72.7,1.08,1.69,1.08,2.97s-.35,2.37-1.04,3.09c-.69.72-1.71,1.08-3.05,1.08s-2.38-.36-3.13-1.08Z"/><path class="cls-1" d="M434.28,203.04c0,.31-.08.46-.23.46-1.29,0-2.29-.03-3.01-.08l-4.48-.08-4.4.08c-.77.05-1.8.08-3.09.08-.15,0-.23-.15-.23-.46s.08-.46.23-.46c1.75,0,2.91-.36,3.48-1.08.57-.72.85-2.14.85-4.25v-11.59c0-2.88-.53-5.01-1.58-6.38-1.06-1.36-2.72-2.05-4.98-2.05-1.34,0-2.7.31-4.1.93s-2.65,1.44-3.79,2.47v16.61c0,2.11.28,3.53.85,4.25.57.72,1.73,1.08,3.48,1.08.15,0,.23.15.23.46s-.08.46-.23.46c-1.29,0-2.29-.03-3.01-.08l-4.48-.08-4.48.08c-.72.05-1.73.08-3.01.08-.15,0-.23-.15-.23-.46s.08-.46.23-.46c1.75,0,2.91-.36,3.48-1.08.57-.72.85-2.14.85-4.25v-14.76c0-1.65-.19-2.86-.58-3.63-.39-.77-1.02-1.16-1.89-1.16-.77,0-2.06.39-3.86,1.16h-.08c-.21,0-.36-.13-.46-.39-.1-.26-.08-.41.08-.46l10.12-4.95c.31-.1.49-.16.54-.16.51,0,1.04.58,1.58,1.74.54,1.16.84,2.67.89,4.52,3.61-4.28,7.52-6.41,11.75-6.41,2.83,0,5.05.86,6.64,2.59,1.6,1.73,2.4,4.06,2.4,6.99v14.91c0,2.11.28,3.53.85,4.25.57.72,1.73,1.08,3.48,1.08.15,0,.23.15.23.46Z"/><path class="cls-1" d="M464.8,198.64c.1,0,.22.1.35.31.13.21.14.36.04.46-1.91,1.75-3.81,3.03-5.72,3.83-1.91.8-3.97,1.2-6.18,1.2-3.14,0-5.86-.69-8.15-2.09-2.29-1.39-4.05-3.22-5.26-5.49-1.21-2.27-1.82-4.71-1.82-7.34,0-3.04.75-5.82,2.24-8.35,1.49-2.52,3.54-4.52,6.14-5.99,2.6-1.47,5.5-2.2,8.69-2.2s5.49.75,7.19,2.24c1.7,1.5,2.55,3.71,2.55,6.65,0,1.49-.31,2.24-.93,2.24l-18.86.08c-.05.46-.08,1.16-.08,2.09,0,4.53,1.04,8.13,3.13,10.78,2.09,2.65,5.06,3.98,8.93,3.98,1.44,0,2.65-.17,3.63-.5.98-.33,2.29-.94,3.94-1.82l.16-.08ZM447.68,176.73c-1.21,1.47-2.02,3.49-2.43,6.07l12.36-.23c-.1-5.36-1.85-8.04-5.26-8.04-1.91,0-3.47.73-4.68,2.2Z"/><path class="cls-1" d="M477.9,181.71c1.11,1.08,2.72,2.22,4.83,3.4,1.86,1.03,3.28,1.88,4.29,2.55,1.01.67,1.88,1.57,2.63,2.7.75,1.13,1.12,2.5,1.12,4.1,0,1.75-.44,3.37-1.31,4.87-.88,1.49-2.18,2.7-3.9,3.63s-3.77,1.39-6.14,1.39c-2.83,0-5.44-.72-7.8-2.16-.31-.31-.46-.62-.46-.93l-.15-7.11c0-.15.14-.24.42-.27.28-.02.45.01.5.12.87,2.58,2.2,4.69,3.98,6.34,1.78,1.65,3.67,2.47,5.68,2.47,1.29,0,2.29-.33,3.01-1,.72-.67,1.08-1.67,1.08-3.01,0-1.96-.57-3.52-1.7-4.68-1.13-1.16-2.78-2.3-4.95-3.44-1.75-.93-3.12-1.71-4.1-2.36-.98-.64-1.82-1.52-2.51-2.63-.69-1.11-1.04-2.48-1.04-4.13,0-2.94,1.07-5.12,3.21-6.57,2.14-1.44,4.73-2.16,7.77-2.16,2.01,0,4.07.39,6.18,1.16.46.21.7.49.7.85,0,1.19-.03,2.11-.08,2.78l-.08,3.71c0,.15-.15.23-.46.23s-.46-.08-.46-.23c0-1.03-.41-2.1-1.24-3.21-.83-1.11-1.88-2.02-3.17-2.74-1.29-.72-2.6-1.08-3.94-1.08-2.37,0-3.55,1.13-3.55,3.4,0,1.6.55,2.94,1.66,4.02Z"/><path class="cls-1" d="M503.47,181.71c1.11,1.08,2.72,2.22,4.83,3.4,1.86,1.03,3.28,1.88,4.29,2.55,1.01.67,1.88,1.57,2.63,2.7.75,1.13,1.12,2.5,1.12,4.1,0,1.75-.44,3.37-1.31,4.87-.88,1.49-2.18,2.7-3.9,3.63s-3.77,1.39-6.14,1.39c-2.83,0-5.44-.72-7.8-2.16-.31-.31-.46-.62-.46-.93l-.15-7.11c0-.15.14-.24.42-.27.28-.02.45.01.5.12.87,2.58,2.2,4.69,3.98,6.34,1.78,1.65,3.67,2.47,5.68,2.47,1.29,0,2.29-.33,3.01-1,.72-.67,1.08-1.67,1.08-3.01,0-1.96-.57-3.52-1.7-4.68-1.13-1.16-2.78-2.3-4.95-3.44-1.75-.93-3.12-1.71-4.1-2.36-.98-.64-1.82-1.52-2.51-2.63-.69-1.11-1.04-2.48-1.04-4.13,0-2.94,1.07-5.12,3.21-6.57,2.14-1.44,4.73-2.16,7.77-2.16,2.01,0,4.07.39,6.18,1.16.46.21.7.49.7.85,0,1.19-.03,2.11-.08,2.78l-.08,3.71c0,.15-.15.23-.46.23s-.46-.08-.46-.23c0-1.03-.41-2.1-1.24-3.21-.83-1.11-1.88-2.02-3.17-2.74-1.29-.72-2.6-1.08-3.94-1.08-2.37,0-3.55,1.13-3.55,3.4,0,1.6.55,2.94,1.66,4.02Z"/><path class="cls-1" d="M574.53,180.63c2.52,2.37,3.79,5.31,3.79,8.81,0,2.68-.73,5.11-2.2,7.3-1.47,2.19-3.5,3.92-6.1,5.18-2.6,1.26-5.5,1.89-8.69,1.89-1.49,0-3.22-.08-5.18-.23-.67-.05-1.52-.1-2.55-.15-1.03-.05-2.19-.08-3.48-.08l-5.56.08c-.98.05-2.32.08-4.02.08-.15,0-.23-.15-.23-.46s.08-.46.23-.46c1.65,0,2.88-.14,3.71-.42.82-.28,1.4-.79,1.74-1.51.33-.72.5-1.85.5-3.4v-35.78c0-1.49-.17-2.61-.5-3.36-.34-.75-.9-1.26-1.7-1.55-.8-.28-2.02-.43-3.67-.43-.1,0-.15-.15-.15-.46s.05-.46.15-.46l4.02.08c2.27.1,4.1.16,5.49.16s2.96-.08,4.56-.23c.57-.05,1.25-.1,2.05-.15.8-.05,1.71-.08,2.74-.08,4.58,0,8.09.88,10.51,2.63,2.42,1.75,3.63,4.22,3.63,7.42,0,2.47-.8,4.7-2.4,6.68-1.6,1.98-3.86,3.54-6.8,4.68,4.22.46,7.6,1.88,10.12,4.25ZM554.78,157.52c-.59.67-.89,2.04-.89,4.1v14.68l3.25.08c3.04,0,5.33-.99,6.88-2.97,1.55-1.98,2.32-4.55,2.32-7.69,0-2.94-.69-5.2-2.09-6.8-1.39-1.6-3.43-2.4-6.11-2.4-1.65,0-2.77.34-3.36,1ZM570.51,191.29c0-3.91-1.02-7.06-3.05-9.43-2.04-2.37-5.01-3.55-8.92-3.55-1.85,0-3.4.05-4.64.16v18.78c0,1.19.15,2.11.46,2.78.31.67.9,1.17,1.78,1.51.87.34,2.19.5,3.94.5,6.96,0,10.43-3.58,10.43-10.74Z"/><path class="cls-1" d="M608.22,174.06c1.08.77,1.62,1.7,1.62,2.78,0,.98-.3,1.78-.89,2.4-.59.62-1.4.93-2.43.93-.67,0-1.22-.14-1.66-.42-.44-.28-.89-.68-1.35-1.2-.46-.46-.88-.81-1.24-1.04-.36-.23-.8-.35-1.31-.35-.57,0-1.17.22-1.82.66-.65.44-1.64,1.35-2.97,2.74v16.69c0,1.44.2,2.54.62,3.28.41.75,1.11,1.27,2.09,1.58.98.31,2.42.46,4.33.46.21,0,.31.15.31.46s-.1.46-.31.46c-1.7,0-3.07-.03-4.1-.08l-6.1-.08-4.48.08c-.72.05-1.73.08-3.01.08-.15,0-.23-.15-.23-.46s.08-.46.23-.46c1.75,0,2.91-.36,3.48-1.08.57-.72.85-2.14.85-4.25v-14.76c0-1.65-.19-2.86-.58-3.63-.39-.77-1.02-1.16-1.89-1.16-.77,0-2.06.39-3.86,1.16h-.08c-.21,0-.36-.13-.46-.39-.1-.26-.08-.41.08-.46l10.12-4.95c.31-.1.49-.16.54-.16.51,0,1.03.55,1.55,1.66.51,1.11.82,2.56.93,4.37,2.01-2.27,3.68-3.84,5.02-4.71,1.34-.87,2.55-1.31,3.63-1.31,1.18,0,2.32.39,3.4,1.16Z"/><path class="cls-1" d="M620.27,202.31c-2.37-1.47-4.2-3.45-5.49-5.95-1.29-2.5-1.93-5.22-1.93-8.15,0-3.35.84-6.19,2.51-8.54,1.67-2.34,3.81-4.1,6.41-5.26,2.6-1.16,5.27-1.74,8-1.74,3.14,0,5.89.75,8.23,2.24,2.34,1.49,4.13,3.47,5.37,5.91,1.24,2.45,1.85,5.06,1.85,7.84,0,3.09-.76,5.85-2.28,8.27-1.52,2.42-3.57,4.29-6.14,5.6-2.58,1.31-5.36,1.97-8.35,1.97s-5.82-.73-8.19-2.2ZM636,199.95c1.21-2.01,1.82-4.95,1.82-8.81,0-3.45-.48-6.46-1.43-9.04-.95-2.58-2.24-4.53-3.86-5.87-1.62-1.34-3.39-2.01-5.29-2.01-2.32,0-4.07.95-5.25,2.86-1.19,1.91-1.78,4.71-1.78,8.42,0,3.35.45,6.35,1.35,9s2.16,4.73,3.79,6.22c1.62,1.49,3.44,2.24,5.45,2.24,2.27,0,4.01-1,5.22-3.01Z"/><path class="cls-1" d="M686.11,203.04c0,.31-.08.46-.23.46-1.29,0-2.32-.03-3.09-.08l-4.4-.08-5.79.08c-.88.05-2.06.08-3.55.08-.1,0-.16-.15-.16-.46s.05-.46.16-.46c2.11,0,3.17-.54,3.17-1.62,0-.46-.21-.98-.62-1.55l-9.04-11.9-2.32,2.01v7.73c0,2.11.3,3.53.89,4.25.59.72,1.76,1.08,3.52,1.08.21,0,.31.15.31.46s-.1.46-.31.46c-1.29,0-2.32-.03-3.09-.08l-4.4-.08-4.4.08c-.77.05-1.8.08-3.09.08-.15,0-.23-.15-.23-.46s.08-.46.23-.46c1.7,0,2.86-.37,3.48-1.12.62-.75.93-2.15.93-4.21v-39.49c0-1.8-.18-3.1-.54-3.9-.36-.8-.95-1.2-1.78-1.2-.77,0-1.83.31-3.17.93h-.08c-.15,0-.3-.14-.42-.43-.13-.28-.12-.45.04-.5l10.74-5.1.39-.08c.21,0,.43.1.66.31.23.21.35.39.35.54v39.56l8.27-7.42c1.44-1.24,2.16-2.45,2.16-3.63,0-.67-.3-1.21-.89-1.62-.59-.41-1.43-.62-2.51-.62-.15,0-.23-.15-.23-.46s.08-.46.23-.46c1.44,0,2.58.03,3.4.08l5.87.08,5.49-.08c.72-.05,1.7-.08,2.94-.08.15,0,.23.15.23.46s-.08.46-.23.46c-2.11,0-4.51.53-7.19,1.58-2.68,1.06-5.15,2.59-7.42,4.6l-3.32,2.86,10.28,13.6c1.44,1.91,2.86,3.27,4.25,4.1,1.39.82,2.83,1.24,4.33,1.24.15,0,.23.15.23.46Z"/><path class="cls-1" d="M713.7,198.64c.1,0,.22.1.35.31.13.21.14.36.04.46-1.91,1.75-3.81,3.03-5.72,3.83-1.91.8-3.97,1.2-6.18,1.2-3.14,0-5.86-.69-8.15-2.09-2.29-1.39-4.05-3.22-5.26-5.49-1.21-2.27-1.82-4.71-1.82-7.34,0-3.04.75-5.82,2.24-8.35,1.49-2.52,3.54-4.52,6.14-5.99,2.6-1.47,5.5-2.2,8.69-2.2s5.49.75,7.19,2.24c1.7,1.5,2.55,3.71,2.55,6.65,0,1.49-.31,2.24-.93,2.24l-18.86.08c-.05.46-.08,1.16-.08,2.09,0,4.53,1.04,8.13,3.13,10.78,2.09,2.65,5.06,3.98,8.93,3.98,1.44,0,2.65-.17,3.63-.5.98-.33,2.29-.94,3.94-1.82l.16-.08ZM696.58,176.73c-1.21,1.47-2.02,3.49-2.43,6.07l12.36-.23c-.1-5.36-1.85-8.04-5.26-8.04-1.91,0-3.47.73-4.68,2.2Z"/><path class="cls-1" d="M742.37,174.06c1.08.77,1.62,1.7,1.62,2.78,0,.98-.3,1.78-.89,2.4-.59.62-1.4.93-2.43.93-.67,0-1.22-.14-1.66-.42-.44-.28-.89-.68-1.35-1.2-.46-.46-.88-.81-1.24-1.04-.36-.23-.8-.35-1.31-.35-.57,0-1.17.22-1.82.66-.65.44-1.64,1.35-2.97,2.74v16.69c0,1.44.2,2.54.62,3.28.41.75,1.11,1.27,2.09,1.58.98.31,2.42.46,4.33.46.21,0,.31.15.31.46s-.1.46-.31.46c-1.7,0-3.07-.03-4.1-.08l-6.1-.08-4.48.08c-.72.05-1.73.08-3.01.08-.15,0-.23-.15-.23-.46s.08-.46.23-.46c1.75,0,2.91-.36,3.48-1.08.57-.72.85-2.14.85-4.25v-14.76c0-1.65-.19-2.86-.58-3.63-.39-.77-1.02-1.16-1.89-1.16-.77,0-2.06.39-3.86,1.16h-.08c-.21,0-.36-.13-.46-.39-.1-.26-.08-.41.08-.46l10.12-4.95c.31-.1.49-.16.54-.16.51,0,1.03.55,1.55,1.66.51,1.11.82,2.56.93,4.37,2.01-2.27,3.68-3.84,5.02-4.71,1.34-.87,2.55-1.31,3.63-1.31,1.18,0,2.32.39,3.4,1.16Z"/></g></g></svg>
